<mxfile host="app.diagrams.net" modified="2021-02-26T00:12:51.464Z" agent="5.0 (Windows NT 10.0; Win64; x64) AppleWebKit/537.36 (KHTML, like Gecko) Chrome/88.0.4324.150 Safari/537.36" etag="rdpXf0fdkQeyIWN7_brp" version="14.4.3" type="github">
  <diagram id="Ns8TB9k6B7BA3dVQWUGG" name="Page-1">
    <mxGraphModel dx="1422" dy="1874" grid="1" gridSize="10" guides="1" tooltips="1" connect="1" arrows="1" fold="1" page="1" pageScale="1" pageWidth="827" pageHeight="1169" math="0" shadow="0">
      <root>
        <mxCell id="0" />
        <mxCell id="1" parent="0" />
        <mxCell id="dhRZBU3aFt9_n93tNdM4-19" value="" style="shape=mxgraph.mockup.containers.marginRect;rectMarginTop=10;strokeColor=#666666;strokeWidth=1;dashed=0;rounded=1;arcSize=5;recursiveResize=0;" parent="1" vertex="1">
          <mxGeometry x="10" y="-70" width="680" height="590" as="geometry" />
        </mxCell>
        <mxCell id="dhRZBU3aFt9_n93tNdM4-20" value="Add/Change Direct Debit Frequency" style="shape=rect;strokeColor=none;fillColor=#008cff;strokeWidth=1;dashed=0;rounded=1;arcSize=20;fontColor=#ffffff;fontSize=17;spacing=2;spacingTop=-2;align=left;autosize=1;spacingLeft=4;resizeWidth=0;resizeHeight=0;perimeter=none;" parent="dhRZBU3aFt9_n93tNdM4-19" vertex="1">
          <mxGeometry x="5" width="300" height="30" as="geometry" />
        </mxCell>
        <mxCell id="COK3GCsZX3T8CLw1UcPQ-118" value="myBupa app" style="shape=image;imageAspect=0;aspect=fixed;verticalLabelPosition=bottom;verticalAlign=top;labelBackgroundColor=#FFFFFF;fontSize=12;image=https://image.flaticon.com/icons/svg/977/977411.svg;" parent="dhRZBU3aFt9_n93tNdM4-19" vertex="1">
          <mxGeometry x="50" y="61.999999999999986" width="50" height="50" as="geometry" />
        </mxCell>
        <mxCell id="tTJR73BYCqFCVG73Lhry-30" value="4" style="ellipse;whiteSpace=wrap;html=1;aspect=fixed;strokeWidth=2;fontFamily=Tahoma;spacingBottom=4;spacingRight=2;strokeColor=#d3d3d3;" parent="dhRZBU3aFt9_n93tNdM4-19" vertex="1">
          <mxGeometry x="100" y="77.51999999999998" width="20" height="20" as="geometry" />
        </mxCell>
        <mxCell id="tTJR73BYCqFCVG73Lhry-1" value="myBupa website" style="shape=image;imageAspect=0;aspect=fixed;verticalLabelPosition=bottom;verticalAlign=top;image=https://image.flaticon.com/icons/svg/811/811768.svg;" parent="dhRZBU3aFt9_n93tNdM4-19" vertex="1">
          <mxGeometry x="50" y="177" width="50" height="50" as="geometry" />
        </mxCell>
        <mxCell id="tTJR73BYCqFCVG73Lhry-29" value="3" style="ellipse;whiteSpace=wrap;html=1;aspect=fixed;strokeWidth=2;fontFamily=Tahoma;spacingBottom=4;spacingRight=2;strokeColor=#d3d3d3;" parent="dhRZBU3aFt9_n93tNdM4-19" vertex="1">
          <mxGeometry x="110" y="192" width="20" height="20" as="geometry" />
        </mxCell>
        <mxCell id="dhRZBU3aFt9_n93tNdM4-8" value="16" style="ellipse;whiteSpace=wrap;html=1;aspect=fixed;strokeWidth=2;fontFamily=Tahoma;spacingBottom=4;spacingRight=2;strokeColor=#d3d3d3;" parent="dhRZBU3aFt9_n93tNdM4-19" vertex="1">
          <mxGeometry x="179" y="122" width="20" height="20" as="geometry" />
        </mxCell>
        <mxCell id="3j8oUQN09gYwykHITEtm-5" value="Digital sales&#xa;team and bots" style="shape=image;imageAspect=0;aspect=fixed;verticalLabelPosition=bottom;verticalAlign=top;image=https://image.flaticon.com/icons/svg/1640/1640809.svg;imageBackground=#ffffff;" parent="dhRZBU3aFt9_n93tNdM4-19" vertex="1">
          <mxGeometry x="205" y="102" width="50" height="50" as="geometry" />
        </mxCell>
        <mxCell id="COK3GCsZX3T8CLw1UcPQ-7" value="" style="shape=image;imageAspect=0;aspect=fixed;verticalLabelPosition=bottom;verticalAlign=top;image=https://image.flaticon.com/icons/svg/1447/1447743.svg;" parent="dhRZBU3aFt9_n93tNdM4-19" vertex="1">
          <mxGeometry x="235" y="72" width="50" height="50" as="geometry" />
        </mxCell>
        <mxCell id="tTJR73BYCqFCVG73Lhry-36" value="8" style="ellipse;whiteSpace=wrap;html=1;aspect=fixed;strokeWidth=2;fontFamily=Tahoma;spacingBottom=4;spacingRight=2;strokeColor=#d3d3d3;" parent="dhRZBU3aFt9_n93tNdM4-19" vertex="1">
          <mxGeometry x="285" y="82" width="20" height="20" as="geometry" />
        </mxCell>
        <mxCell id="oZ2ZN3utCK6ckdLz9zwI-11" style="edgeStyle=orthogonalEdgeStyle;curved=1;orthogonalLoop=1;jettySize=auto;html=1;exitX=0.5;exitY=0;exitDx=0;exitDy=0;entryX=0.14;entryY=-0.04;entryDx=0;entryDy=0;entryPerimeter=0;" parent="dhRZBU3aFt9_n93tNdM4-19" source="COK3GCsZX3T8CLw1UcPQ-7" target="3j8oUQN09gYwykHITEtm-5" edge="1">
          <mxGeometry relative="1" as="geometry" />
        </mxCell>
        <mxCell id="oZ2ZN3utCK6ckdLz9zwI-12" value="&lt;font style=&quot;font-size: 9px&quot;&gt;Exceptions&lt;/font&gt;" style="text;html=1;align=center;verticalAlign=middle;resizable=0;points=[];labelBackgroundColor=#ffffff;" parent="oZ2ZN3utCK6ckdLz9zwI-11" vertex="1" connectable="0">
          <mxGeometry x="0.0172" y="8" relative="1" as="geometry">
            <mxPoint as="offset" />
          </mxGeometry>
        </mxCell>
        <mxCell id="3j8oUQN09gYwykHITEtm-9" value="bupa.com.au &#xa;sales pathway&#xa;(domestic, OVC, corporate&#xa;Â  and migration)" style="shape=image;imageAspect=0;aspect=fixed;verticalLabelPosition=bottom;verticalAlign=top;image=https://image.flaticon.com/icons/svg/811/811768.svg;" parent="dhRZBU3aFt9_n93tNdM4-19" vertex="1">
          <mxGeometry x="380" y="47" width="50" height="50" as="geometry" />
        </mxCell>
        <mxCell id="tTJR73BYCqFCVG73Lhry-32" value="5" style="ellipse;whiteSpace=wrap;html=1;aspect=fixed;strokeWidth=2;fontFamily=Tahoma;spacingBottom=4;spacingRight=2;strokeColor=#d3d3d3;" parent="dhRZBU3aFt9_n93tNdM4-19" vertex="1">
          <mxGeometry x="350" y="47" width="20" height="20" as="geometry" />
        </mxCell>
        <mxCell id="COK3GCsZX3T8CLw1UcPQ-6" style="edgeStyle=none;rounded=0;orthogonalLoop=1;jettySize=auto;html=1;exitX=0;exitY=0.5;exitDx=0;exitDy=0;entryX=1;entryY=0;entryDx=0;entryDy=0;startArrow=none;startFill=0;" parent="dhRZBU3aFt9_n93tNdM4-19" source="3j8oUQN09gYwykHITEtm-9" target="COK3GCsZX3T8CLw1UcPQ-7" edge="1">
          <mxGeometry relative="1" as="geometry" />
        </mxCell>
        <mxCell id="COK3GCsZX3T8CLw1UcPQ-113" value="&lt;font style=&quot;font-size: 9px ; line-height: 0%&quot;&gt;&lt;br style=&quot;font-size: 9px&quot;&gt;&lt;/font&gt;" style="text;html=1;align=center;verticalAlign=middle;resizable=0;points=[];labelBackgroundColor=#ffffff;fontSize=9;spacing=0;" parent="COK3GCsZX3T8CLw1UcPQ-6" vertex="1" connectable="0">
          <mxGeometry x="-0.3495" y="-2" relative="1" as="geometry">
            <mxPoint x="14.469999999999999" y="-8.84" as="offset" />
          </mxGeometry>
        </mxCell>
        <mxCell id="hMNQSD_hniRzrg8MICWJ-1" value="Health Insurance Comparison" style="shape=image;verticalLabelPosition=bottom;labelBackgroundColor=#ffffff;verticalAlign=top;aspect=fixed;imageAspect=0;image=data:image/png,iVBORw0KGgoAAAANSUhEUgAAALcAAAAyCAYAAAAeE0r0AAAL1ElEQVR4Ae2cW4xV1RnHfWmTalIfeCgP9qFN25jW2Ae10Sa9oSlJAYtNiWgT6g1aq6mQai0VBLUVLC0RRVqJImAQ5SYCgeGiIIzcBme4X4aRGWAQLDgFAYFi8zW/PfwP39mzz+y9xznDZGatZM9a67uvb/33d9be52Qus1jr2fMbMYpZr5v72foNm1rQAyFkoDNn4LJ4cEngRiYAPJ6pMO/sGcgM7gDwzr6VIb54BnKB++y586GCxzMY5p02A7nAzSqOHz8ZAN5ptzME5jOQG9woHzny7wBwn8Uw7pQZaBO4Wcn+/QcjgHfKVYWgQgbMLBXcp06dKSSKNybxq8AMg5CBTpaBVsENsK+4oqctXLQiCvvmW261BQsrMi+h9sRpm7DnoP22qtZ+vX53yevRzfvslX2HM9sNgiEDWTJQEtwCNl/eXHPNjZEtjiIapxkH2Hdt2FME6LT5mwePppkN/JCBzBlIBLcHNpb69L3dVq/eEBllnKV6T68/UgTs1iq35+06cTpz8EEwZKC1DLQAN2dqjiL+63bGV199fWRn587ddu2132/NZsQbs6OhAO60iu35oXqnpjYIZMxAC3CX0qNiA2zaddf9qJRYgT525/4CuH1lThvPbzxWsBEGIQOfJwOZwX3o0OGoet99z4NWXb011Sfg9hUZUGeZh8qdmtogkDEDmcGd0V5BLFTuQirC4BJloGzgDmfuS7SjwW0hA2UDd2ep3D/5cS/jirepr0yN6PTt1X53/wPW/+e32enTrb/xGfrQsMh3Tc3mTK5XrVoV2R096olM8kGoOQNlAfemY59ED5NZztj+ARP5BzbttZPnP2u3/elocOOvHODGbgB3Pli0O7gXNB6z36R8I+kBHR/ftX63jdrWYDX/OZlvJSWkLyW4S306tKVyB3CX2OBWyLnBvf7ocfvrjgYbsvHit49tqdAe1F4fcN+9YY/R6/Lzoe/X2fO1h+yjM/9tZVkXWQHcF3PR3Ua5wL388MdtenftgZw2FqDT+se21Fvjp2dT9ysvuJcsqbCRI0basKHDbOrUaXby5MVPEMbPjH0m4sGvqFha5J8zN/44lnCeRoa5bB0+3Pz7GVVu72vOnLlFtvyEMzd2/LEEXeLbu3dvIZ41ayq9mjHHN9fEiS8U1kJs6CoelGRPNM2xQT4mPj8xsu1tkgvJw2SMXWSUJ3qfQ+SIWXxsx589mItP3N5HFETGP7nAPXpbfRG4fcUFtEnz+6tq7bnaRnuhtrEFn/P1lA8+tPG7DxTO6B7UvmJDj8+n1R9JXabArU1Wf8fAOyPA+AfKsWPGRrS+ffrZffcOjsaD7xtS2Bw2DXvwBt5+Rwt9D24dSeSfXpsocPfre2tkB3/wfSx+YUnglg30GMsGMdIUK3zFKoAqNsWDvOyJpjn6XNJl7fgSnzUIvOhKHp/yS87VkuJCh5uJRs887qMtAM8F7kFrd9qgtbssaz+j/rCdOHde67KjZ87ZE1vrI/1ZDR/Z2c/+V+BtafrEHq6uy2X/6e37C/qlBkp2qV6Aopogw+Zps+bMnhPR6NWUZGS0eeJ5cEMTiORDcgKG6NhiMwFKUmsN3AKz4sc2Tb6pgDSB1vM8TTGJprlAHRkxi3ITz4/WIXArBnRkh/horJM8+7gpKuQVu+QAGclrXSMeG6kQMve5wH3n6m12x7tbLUs/orouMYgDp87YpN0HEnlnzn9m97y3I5N94nhqy75EO54oUHsaY22+NkZzyftem0VVIfniaayNyAtuAYl4BIJ4nMxbA7eXJy7FClgEJOL0xwOtNcm/aIpHc/wAPqpwfP0CHrLwlFN0vC8BVTH62BlLX/Z9TyHJ23KBe8CKahuwosaae8al52uPNOWNJZIfv63eBrxd7a4aN4Z+cT7q/dpUH0pQXFBJ10aoSlO5ofmLTQEs2AIwVBr4Ao8AEAe3bMqHYkgCjmiS8X1bwI0+YOSGlG2BkHhYi6onspLRWuJzZHRsU46whx1kaQKnX698wVMOOer5pk8C6XMzoucvFRCvlzbOBe7+FVXWf8lGy9KnOS7Fn1nXaP2XVln/io2p/Yiq5h9ylbIFPSu4lXgSy4MiidZDDTwlno1hzAOgbDOnxcEtHR6aNm9u3lzkkoAjWmQo9qct4MY38QMKnWMBJU3nXtZCXElrUTxaG3qiIQ8d/TzgxgYxoMODIrHJt45+OurJBw+oPB/5OKJFZPiTC9x9Fq41XX0XriuMocXn+46fyuC+pciM2oPWZ9Fa67toXdQzLjX/07rtLQ3EKAJgjBxVBXi+ygACVWPpsaGqLNoYeMhpI5T4OLjxqermfQkk0kNOtHiczNsCblVZrYOe9an5uJLWonh8jLopZFP5QJaGrF8nNF+5mVMolDfZYa7KTB/fA8+PHGX8kwvcveevsZ++udqy9K/vST5Xp8X1aOXWTPaJ45HK9F8nknC/QfKvakzvG3OqCJviP7aR0cc8fOTYCGwL/A0NDcYV/4YSO9LBTlzP03wsGssuvZpsaE5PLNDVGOuj3dPF93HJntYSn0uHdSs3yHqfmvucMvY5kh18ezui02OHG1F8z8szzgXuXrPfsV6zV1pzz7j0/N5lG/PEEcnu+vhEZvv4HraqOrePoNB9MpAL3D+cudx+8Noyy9o/XrklVyZ///amXPaRDy1koFQGcoF7yJJ1dtP0xXbj9MVRzzht/mJN+hsNght8wXaaPc+fULWr1LoCPWSg5f8taS0n8/fst+tfXmDXT1lo113os8z/sb70g9+RU59a75nLctmT/xNns/2+hDX5c2B8jTpnZqGXko3rMs8jm1c/yXYSLclud6HlqtwkperDozZo/rt208sL7Lsvzst8jX635fl42QeN9r2X3spsA3+3vLrYHlyy1uqaPsm0R3zDxsXDCW8I/IMVDzrQ4CGj11EyrLcAmgMe/40derwx0HtvydEjCz3eePLHLn79A+u8ufOsrq75iy/5Ucz+xiRGvx7WoMYYHTXGni96d+lzgzstMZM37bQbJr9p3544y77zwuyi/g9L19mxCz92mrF1bwu+5H/5xnJbWX8ozVUqP765gEaAAjBx8AEc8THOKykPeEDldbx9nu79qzbGANgDE5sefP7m8eAGkLJFzGrE5uOBTjzygR4x6wb28clGd+rbHdwkb+neA/atZ19LvH41e4VN2rA9kYfODf+aa00Zfu2XZZN8lY3LAxKBwPMApBrgAyDICVgenB484ktXenEwSh/QlgK3ePFfHfrY5IfY5EOVG8Bjw8cn+e7UlwXcJHDg60vta+OmR9fX//5qYQyttfmz7138mP28G+GrbNyWwBenex2BD1CJLnCix5hv0LiQUZWlkqryxgGpYwm9Ki62fOVWTNww3m7cFnKAWzEJ3MRBvNChdddWNnAPmLHYrnp6in11zBS7SleG+fg1Ne22F1TueHUGMDSAFa/s8ARKZARuZAVcAQk+46RPAOzy9TKg54dGPgbp40uxYMuDW76gA07FRO914ONLN4nADR05bqAAbrLRzu22aQut51OT7StPTraeT17oM8zHrWq/d9eqYPxOgY94Kp8HGmChwlVWVkZgjINd4PapETihMU4Cj6o8MopBNry+r8oe3MSFHL/7wJbAi43oxnl+YhQzPAEfnge3ZJPiUyxdvS9b5b51ynzrMXKS9Xh8Uq7+mXeq2j3ngKPUJgM+eB5ACsDfCKJ5Oca+yiLD3MtA8/P4WPpNTU3GpYZv4hJfdNlL4iX5TtL3trryuGzg/tnkuXbl8Ofsy8Ofsyv/fKHPMB+zYn1XzndYWwdmoGzg7v3PWfalh8fb5Y+Mt8sv9Fnmf1m2rgOXH1x15QyUDdwPzVluXxw2zr4w9G+FK8t82oZtXTnfYW0dmIGygfu9fY0FUHuAtzYeOPWtDlx6cNXVM1A2cJM4AP6Ll+ZZj+ETioAer+DffPJF++NbK7t6rsP6OjgDZQV3B68luAsZKMpAAHdROsKkK2UggLsr7WZYS1EGAriL0hEmXSkDAdxdaTfDWooyEMBdlI4w6UoZ+D/sb+Ll5AcWogAAAABJRU5ErkJggg==;" parent="dhRZBU3aFt9_n93tNdM4-19" vertex="1">
          <mxGeometry x="490" y="54.24000000000001" width="130" height="35.52" as="geometry" />
        </mxCell>
        <mxCell id="tTJR73BYCqFCVG73Lhry-33" value="6" style="ellipse;whiteSpace=wrap;html=1;aspect=fixed;strokeWidth=2;fontFamily=Tahoma;spacingBottom=4;spacingRight=2;strokeColor=#d3d3d3;" parent="dhRZBU3aFt9_n93tNdM4-19" vertex="1">
          <mxGeometry x="620" y="62" width="20" height="20" as="geometry" />
        </mxCell>
        <mxCell id="tTJR73BYCqFCVG73Lhry-9" style="edgeStyle=none;rounded=0;orthogonalLoop=1;jettySize=auto;html=1;exitX=0;exitY=0.5;exitDx=0;exitDy=0;entryX=1;entryY=0.5;entryDx=0;entryDy=0;startArrow=none;startFill=0;" parent="dhRZBU3aFt9_n93tNdM4-19" source="hMNQSD_hniRzrg8MICWJ-1" target="3j8oUQN09gYwykHITEtm-9" edge="1">
          <mxGeometry relative="1" as="geometry" />
        </mxCell>
        <mxCell id="3j8oUQN09gYwykHITEtm-7" value="Compare the market" style="shape=image;imageAspect=0;aspect=fixed;verticalLabelPosition=bottom;verticalAlign=top;image=data:image/jpeg,/9j/4AAQSkZJRgABAQAAAQABAAD/2wCEAAkGBwgHBgkIBwgKCgkLDRYPDQwMDRsUFRAWIB0iIiAdHx8kKDQsJCYxJx8fLT0tMTU3Ojo6Iys/RD84QzQ5OjcBCgoKDQwNGg8PGjclHyU3Nzc3Nzc3Nzc3Nzc3Nzc3Nzc3Nzc3Nzc3Nzc3Nzc3Nzc3Nzc3Nzc3Nzc3Nzc3Nzc3N//AABEIAGkAyAMBEQACEQEDEQH/xAAbAAEAAgMBAQAAAAAAAAAAAAAABQYBAwQHAv/EADsQAAEEAgECAggEBAMJAAAAAAEAAgMEBREGEiExUQcTFCJBYXGBFTKhsSNCkdEzN3MWJYKTsrPBw+H/xAAaAQEAAwEBAQAAAAAAAAAAAAAAAgMEAQUG/8QAMREAAwACAgECAggFBQAAAAAAAAECAxESIQQTMUFRFCIyNGFxgfAzQpHB4SNEobHx/9oADAMBAAIRAxEAPwD3FAEAQBAEAQBAEAQBAcct1u+mEdZ8/ggPkTTO7lwH0CA+xM8fzb+yA2snB/N2+aA2g7QGUAQBAEAQBAEAQBAEAQBAEAQBAEAQBAEBw25DIfVtPujxPmgI+/kaOKa025g17vysHdzvoFC7U+5KYdexB5HmTYKzpKtXZ8G+td8fnr+6ofk/JF8+P82R3EvSJVyFz8Ly8rI77nkROawhsgOzrtvRCsjL19YjeHT+qW25msbSYX2rbWMHieku/YLvrY/mQ9K/kSFC3FZhimrytlglYHRyMdtrgfAgq0ra0dyAIAgCAIAgCAIAgCAIAgCAIAgCAIAgPmR3SwlAQWfykWDwtvJSjqEDNhu9dTiQGj7khcp6WzqW3o8Ix2atZrK2bt+w98nX7o8Af/n7LLZrnr2LXAYrQY2cdTB4t3razvosTJSm7EYgmWOtFA94958UO3H6kDag+TJozZy1DKTRUqLpbFmdwYxjInD7kkAADxK7GOm9HKaS2y+YmgzGY6CnG7qbE3W9a2Sdn9V6crikjz6rlTZLxO6mKRE+0AQBAEAQBAEAQBAEAQBAEAQBAEAQGqx/h/cICm+k6hZyHCMjHTYZJouicRjxeGPDiB89ArjW0Sl6ezwTDvY2UyRSAtd3WekaFouGPt+HdUtFiZP154p2dEgDgqmiwvHGMJWx0HtIhDbEw/M4e81vl8vNbcEcZ2/cx5snJ6ROq8pOiqdsP1QG5AEAQBAEAQBAEAQBAEAQBAEAQBAEB8SjqYQgORAeJek7gb8flYsjxym50Fvq9dXi1qJ4+LR5Hfh8CPmqctxGuT1sthsqW7uOLW369ivs9jKwtB+hPiq1qvsvZamXPgDmZLP04Zev1J6ng6PS4tBIG/D4foVGZl3pnbbUvR7M4gb2thkNEkwCA7qIIrtJ8Xd0B0IAgCAIAgCAIAgCAIAgCAIAgCAIAgCA5JWdLjrwP6IDzz0v56xhKGM9jMZmlncS17d7aG9/1I/qs/kYYypKjV4scmyq4P0mRO/g5rHfwndnPhPW37sd/crJ9F4fZZprxW/ssulS5jr0nr8RYjlqvAIDD+Q+RHiPoViyY+GQpc1K1SLDBO8V/eOwB4+S9Pxcra40ZrR9VI33Z+juI2/nK2lZYAABoDQQGUAQBAEAQBAEAQBAEAQBAEAQBAEAQBAYLQRojaA8w9LHDc7nrVa5hxDYjrwlgql/Q8EnZIJ7Heh5eCjSbNfj5oxppnkk2EzVKUxZLDW4SP5vZ3dvuqWmenizRXxRKYOlna91k2Ip3jLv+SFxDvk7tohVXKvpo1X6DnWRrX5nufHat21jY35Woacr26khLg4j5ghMPj1L2z5/yOCtrHW18yfrwR14mxxN6Wj9VtM5tQBAEAQBAEAQBAEAQBAEAQBAEAQBAEAQBAEAQBAYGkBlAEAQBAEAQBAEAQBAEAQBAEAQBAYPggPPZ+Z5/MZ63juH4+nNFT2Jp7fVpxB1204aGwdeO9b7LavHxxCrM/f5GX17q3ONex157m1/DYrGss4tv47f2GU2ydTWHq1skeexofXv22o4/HnJT1X1V8Tt56iVtdsjpua8m49kacfLsbRZUtdvW1OodHcbPdzvDe9dvkSprx8OWW8Te18yNZ7x0lkXTOrMc2y9Tl9jBY3Fw3T6tpgAcWuLi0O24710gb/RRx+NFYldPR2s9LJwS2cFLn/JYsrZwmQwcE+WBDYY6xLGg63t23H3dHewf7qyvFxOFkmtT+JFeRfJw57JDi/MszNymTj/ACalVr2i0mM1w4DYG9d3HYI+I8lXl8fGsfqY30Sx56eTha0cGK5xyvO+3VsPiaEtmrKeqR5cGNZ3DRou2XHpd8QOynfjYcendPTIxnyXtJexL8R5ncz+EyL/AGBjsxRad1WO6GzHR6QN76dkEd/DzVWbx1jtd/VfxLMOZ5JfXaI7Nck55hqjsndxWIZRY5vXGHOc9oJAGyH+Z1vXx8FZjxeNkrjNPZDJlzRPJytHVyHn0tDA4TMUa0Tob7/4rJdksaPzAaI7+IUcXjK7qG/Ylk8jjE2viaW88y1THX8zmMQ2tjnBgxkZ7STud1fmJd5Df5R28Nrv0aKpRFbfxOeu1Dul18DRZ5nyzDV6mVz2KofhVlw22v1iaMHuN7cRvXw13+SkvHw5G5intHKz5ISql0ejxSNljZJGdse0OB8wVgNZ9oAgCAIAgCAIAgCAIAgMPG2kDxIQHkvorydPD5DN0MrPHVn9bvczg3ZaXBw2fiPL5r0vMirmalbRh8a5mqmvmfPN8rSk5hxvOwWGz43q6fXM7tBZJp/9Ngp48V6Vxrv/AAcz0vUi/gbvS5kKeajw+MxVmK1amn2BC4P0HDpG9eZP6LnhS8bq6WkS8qlfGZ9zbA0s9NgafFtcA/8AIC4/un7+Y/3P6GyX/O+P/Q/9JXF9zf7+If3r9DXe7+nGl28Ix/2Xrs/c3+/icr70jh9FeXx2IuckkyV2Gs1z43N9Y8Au06Xeh8fEf1U/LirmFK3+0c8a5mr2zl41kLmMw/K+U0ouls8oZWc5vYEvJLtfHp6h9/upZYm7x4n+pHHTibyJGrMiK3wc5TIcqtW8jZDdUfaQGdXWNtMY8gCfh4LuPaz8JjSXx1/cjk7w8qrs+ORf5ccS/wBaT/qcu4v4+Q7f8CC0emmCWTi+PmjaXRxWB19uw2wgE/ft91m8BpZGXeYv9NHF+DcVyOIimu8yvPruaHGKzfB6TrwLT4EfRT9TNF6nGt/kc9PHULddHp2Ohjgo14YXl8UcTWscfFzQBorz6bbezYvY6Vw6EAQBAEAQBAEAQBAYKA48ZkauWx8V6hKJq0oJZJojYBIPj8wVKpc1xr3OKk1tEIMJxTln+9fYYLZLiwzAOYXFp0d61vWtd1b6mbD9Xeit48eT62iWs4HE2sazGz4+u6kz8kPQA1n014H5hVrJarkn2SeOWuOujnxPE8Dhp/X47Gwwza0JO7nAfIuJ19l282S1qmcnFEdpHSMHjBlzlhTj/ECNe0d+rWtft2XPUrjw30S4Ty5a7BwmMOWGWNSM5ADpE/fq1rX7dk9SuPDfQ4Tvlrsw/CYx2Xbl3U4zfb2E/fqA1r9k9S+PDfQ4Ty5a7KvgPRvjKFi7LlBBkxYe18bZYdCLu4nXfvvqH9FoyeZdJKetFEeNEtt97Li6hTdSNF1aE1HM9WYOgdHT5a8NLLye+W+zRxWtEPW4RxqqZTDiINysLHF23diNEDZOvsrX5OV+9Faw459kclCDiOfi/CateGxHi3HUBa4CEkkHW/mCu082P67+JxLFa4r4FlsVK9qs+tZhZLBI3pfG8ba4eRCpTae0WtJrTIODgnFoZvWsw1cuB3p5c9o/4SSFc/JzNfaK1gxp9IkMhmsdibFOrcsMhltyCKvH0nbzsAAa+ZAVc47tNpexKrmWkySCgTMoAgCAIAgCAIAgCAjs/QhyOLmhndM1gBeDDM6N2wO3dpB18lPHTmk0RtbWipeizD1hxfGZQSWvaHRyAt9qkMX53DtHvp/RafMyV6lT1r8v7lPjpemmcXCOMw5rjjpLt++I/aJxDDBYdEyI9Z97TddR3397f0Us+Z48mpS+H4/Ajix8pe2aWckyNLgHq5r/AE3W5J2N9ulOyxod3kO/iG7/AHXfSms29da3o5zc4/f46NF7K8fw0mPucY5I61cbajZZhfffN7VG46cS1xI6vjseClMZbVLJGlrrrWiVanTlmOSR3L/pXbiq+TtUo7cAY98LzsNEZcdeRPTrfzTFxnxubW9f+FWTk8/FPXRwfg93Fc9dxnH5u9BUvRgvkD9v6S0k/fbSOofAqfqTeD1albRHhU5eCrpnbia03E/SjWw9W5Ymp3IveEz9kgtce/w2HN8fmo21m8Z212iUp486lPpndyrG8ThyNl/IOUX22XvLhC2cv9SD4AMDToeChhvO5XCFonlWNP61MjOGZO3Pwrl1V92axFVpyuryPcepoMb/AAPiB2B18FZnxzObG9e7RXgtuKW/Y3ejjB38/UpZPI5af2XH2CK1YHfUQ7qcXE/XXnoLnl5JxtzM9s740VaVU/Yq8Wflw1jlEFVxbbv2DCyQHXQ3rf1HfwPfQ+u/gtDxK1DfskZ/U4O0vdlv5EbfBOBQQVbUj8lflDZ7PrC4tPSS4MJ8ANAD6k+Ky4uPkZ22ul8DTkbw4dJ9sq2SvYTE0aV7jXI7k2aic02A/wBYGydve/MANb+GzsLTEXdOckLj+hTdzKTinv8AUkObY6G1y/j8wnshuYdDJJ/E/wALre1p9X293t3+qh49axWte2yXkRvJP4nptTjEFPFw0IZ5pGRes1LO7qk0/e/eGiPFedWV1Tpo2rHpaJPG1ZqsTxYn9dI9/W5/TrZ0Ae2+3cE6+ahTTfRKVpdnYokggCAIAgCAIAgNVlhlryRt8XsLR9wup6ZxlL9HFq3RwlLA3sPk69muJGyTSV9Qj3nOGn77+Ou21q8pKreRNaf9SjA2p4NEj6OqdmjxpsN2vJBL7TM7okb0nReSCq/JpVk2vw/6J4U1PZWmceys3F7Tq9R7chVzkl6vDMOn1oD9jW/MeCv9WFkW3050VOKcdLvZZqfKZ7bmRN45nGTEgPEtYMYzzPW4gED5KisCn+df1LFlb/lZX7eLyDvTFTyLaVg0Wx6NgRnoH8F47n6kBXzc/RHO+/8AKKnNfSFWujZksXff6W6GQZSsOpsga11gRnoB6X9t/cf1XIufornfZ25r6QnrrR85bF5CX0uYzIMpWHUo4QHWBGSxp6JPE/Uj+qRcrxanfZypr6Qq10QXGI8xxfLZSO7xW7k7liTcdlkW2E7dv+IQQAdg78fNX5vTyzPG9JFeJXjqtzvZ1cYweXqYXmsNzHTxT2a0oiY1hIkcWydmH+buR4fJRy5Iq8bT6Wv7EsUWle17lm9FdG5juKiC/WmrzCzI71crC06OtHSz+ZU1l3LLfFlzj0ym4zht/Kf7VQ3KM9eSSUzUpJYy0OeHvI0fIg6+61X5Mx6bl717/wDBnnA75pr8j7nw2f5HwKLG28faiyGKlBhE0Zb6+HpLdAnt1D/wPNFkxYs3JPqg4yZMXFrtExjuUZl9SGv/ALCXJL7WBrnyReqicR8epzeyprBj3v1FotnJekuHZq9JGPygznHsxTxVi0yp0OkirRl5a5r2v6dNB7eI34dlLxbjhcN62c8ia5zSW9F9wOQsZTHMtWsfPQe9x1BP+cD4E+W1iyQorSezVFOltrRIqBIIAgCAIAgCAIAgCAIAgCAIAgCAIDCAygCAIAgMBAZKABAEAQBAEAQH/9k=;" parent="dhRZBU3aFt9_n93tNdM4-19" vertex="1">
          <mxGeometry x="370" y="182" width="95.24" height="50" as="geometry" />
        </mxCell>
        <mxCell id="tTJR73BYCqFCVG73Lhry-37" value="7" style="ellipse;whiteSpace=wrap;html=1;aspect=fixed;strokeWidth=2;fontFamily=Tahoma;spacingBottom=4;spacingRight=2;strokeColor=#d3d3d3;" parent="dhRZBU3aFt9_n93tNdM4-19" vertex="1">
          <mxGeometry x="461.30000000000007" y="197" width="20" height="20" as="geometry" />
        </mxCell>
        <mxCell id="COK3GCsZX3T8CLw1UcPQ-11" style="edgeStyle=none;rounded=0;orthogonalLoop=1;jettySize=auto;html=1;exitX=0;exitY=0.5;exitDx=0;exitDy=0;entryX=1;entryY=1;entryDx=0;entryDy=0;" parent="dhRZBU3aFt9_n93tNdM4-19" source="3j8oUQN09gYwykHITEtm-7" target="COK3GCsZX3T8CLw1UcPQ-7" edge="1">
          <mxGeometry relative="1" as="geometry" />
        </mxCell>
        <mxCell id="dhRZBU3aFt9_n93tNdM4-2" value="11" style="ellipse;whiteSpace=wrap;html=1;aspect=fixed;strokeWidth=2;fontFamily=Tahoma;spacingBottom=4;spacingRight=2;strokeColor=#d3d3d3;" parent="dhRZBU3aFt9_n93tNdM4-19" vertex="1">
          <mxGeometry x="650" y="312" width="20" height="20" as="geometry" />
        </mxCell>
        <mxCell id="COK3GCsZX3T8CLw1UcPQ-28" value="Mailhouse" style="shape=image;imageAspect=0;aspect=fixed;verticalLabelPosition=bottom;verticalAlign=top;image=https://abcorp.com/wp-content/uploads/2017/10/logo.png;labelBackgroundColor=#ffffff;" parent="dhRZBU3aFt9_n93tNdM4-19" vertex="1">
          <mxGeometry x="550.02" y="307" width="94.61" height="30" as="geometry" />
        </mxCell>
        <mxCell id="COK3GCsZX3T8CLw1UcPQ-27" value="Welcome kit &#xa;batch" style="shape=image;imageAspect=0;aspect=fixed;verticalLabelPosition=bottom;verticalAlign=top;image=https://image.flaticon.com/icons/svg/2286/2286676.svg;imageBackground=#ffffff;labelBackgroundColor=#ffffff;" parent="dhRZBU3aFt9_n93tNdM4-19" vertex="1">
          <mxGeometry x="460" y="297" width="50" height="50" as="geometry" />
        </mxCell>
        <mxCell id="tTJR73BYCqFCVG73Lhry-42" value="10" style="ellipse;whiteSpace=wrap;html=1;aspect=fixed;strokeWidth=2;fontFamily=Tahoma;spacingBottom=4;spacingRight=2;strokeColor=#d3d3d3;" parent="dhRZBU3aFt9_n93tNdM4-19" vertex="1">
          <mxGeometry x="440" y="292" width="20" height="20" as="geometry" />
        </mxCell>
        <mxCell id="COK3GCsZX3T8CLw1UcPQ-31" style="edgeStyle=none;rounded=0;orthogonalLoop=1;jettySize=auto;html=1;exitX=1;exitY=0.5;exitDx=0;exitDy=0;entryX=0;entryY=0.5;entryDx=0;entryDy=0;endArrow=classic;endFill=1;" parent="dhRZBU3aFt9_n93tNdM4-19" source="COK3GCsZX3T8CLw1UcPQ-27" target="COK3GCsZX3T8CLw1UcPQ-28" edge="1">
          <mxGeometry relative="1" as="geometry">
            <mxPoint x="392" y="249" as="sourcePoint" />
            <mxPoint x="577.6949999999997" y="203" as="targetPoint" />
          </mxGeometry>
        </mxCell>
        <mxCell id="COK3GCsZX3T8CLw1UcPQ-119" style="edgeStyle=none;rounded=0;orthogonalLoop=1;jettySize=auto;html=1;startArrow=none;startFill=0;endArrow=classic;endFill=1;fontSize=12;exitX=0.5;exitY=1;exitDx=0;exitDy=0;entryX=0.5;entryY=0;entryDx=0;entryDy=0;" parent="dhRZBU3aFt9_n93tNdM4-19" source="COK3GCsZX3T8CLw1UcPQ-118" target="tTJR73BYCqFCVG73Lhry-1" edge="1">
          <mxGeometry relative="1" as="geometry">
            <mxPoint x="332" y="181" as="sourcePoint" />
            <mxPoint x="357" y="363" as="targetPoint" />
          </mxGeometry>
        </mxCell>
        <mxCell id="COK3GCsZX3T8CLw1UcPQ-69" value="Customer Admin&#xa;team" style="shape=image;imageAspect=0;aspect=fixed;verticalLabelPosition=bottom;verticalAlign=top;image=https://image.flaticon.com/icons/svg/1584/1584911.svg;" parent="dhRZBU3aFt9_n93tNdM4-19" vertex="1">
          <mxGeometry x="200" y="322" width="50" height="50" as="geometry" />
        </mxCell>
        <mxCell id="dhRZBU3aFt9_n93tNdM4-10" value="17" style="ellipse;whiteSpace=wrap;html=1;aspect=fixed;strokeWidth=2;fontFamily=Tahoma;spacingBottom=4;spacingRight=2;strokeColor=#d3d3d3;" parent="dhRZBU3aFt9_n93tNdM4-19" vertex="1">
          <mxGeometry x="170" y="322" width="20" height="20" as="geometry" />
        </mxCell>
        <mxCell id="DEALhcKuOMUuAGFNjWsx-153" value="Partner Services&#xa;team" style="shape=image;imageAspect=0;aspect=fixed;verticalLabelPosition=bottom;verticalAlign=top;image=https://image.flaticon.com/icons/svg/1584/1584911.svg;" parent="dhRZBU3aFt9_n93tNdM4-19" vertex="1">
          <mxGeometry x="200" y="460" width="50" height="50" as="geometry" />
        </mxCell>
        <mxCell id="dhRZBU3aFt9_n93tNdM4-11" value="18" style="ellipse;whiteSpace=wrap;html=1;aspect=fixed;strokeWidth=2;fontFamily=Tahoma;spacingBottom=4;spacingRight=2;strokeColor=#d3d3d3;" parent="dhRZBU3aFt9_n93tNdM4-19" vertex="1">
          <mxGeometry x="171" y="490" width="20" height="20" as="geometry" />
        </mxCell>
        <mxCell id="tTJR73BYCqFCVG73Lhry-39" value="" style="shape=image;imageAspect=0;aspect=fixed;verticalLabelPosition=bottom;verticalAlign=top;image=https://www.decipha.com.au/wp-content/uploads/2020/06/AP_Post_Decipha-Logo_POS_RGB.png;" parent="dhRZBU3aFt9_n93tNdM4-19" vertex="1">
          <mxGeometry x="51.41" y="390" width="103.59" height="50" as="geometry" />
        </mxCell>
        <mxCell id="dhRZBU3aFt9_n93tNdM4-12" value="9" style="ellipse;whiteSpace=wrap;html=1;aspect=fixed;strokeWidth=2;fontFamily=Tahoma;spacingBottom=4;spacingRight=2;strokeColor=#d3d3d3;" parent="dhRZBU3aFt9_n93tNdM4-19" vertex="1">
          <mxGeometry x="30.00000000000001" y="405" width="20" height="20" as="geometry" />
        </mxCell>
        <mxCell id="tTJR73BYCqFCVG73Lhry-40" style="edgeStyle=none;rounded=0;orthogonalLoop=1;jettySize=auto;html=1;exitX=1;exitY=0;exitDx=0;exitDy=0;entryX=0;entryY=0.5;entryDx=0;entryDy=0;startArrow=none;startFill=0;" parent="dhRZBU3aFt9_n93tNdM4-19" source="tTJR73BYCqFCVG73Lhry-39" target="COK3GCsZX3T8CLw1UcPQ-69" edge="1">
          <mxGeometry relative="1" as="geometry" />
        </mxCell>
        <mxCell id="tTJR73BYCqFCVG73Lhry-41" style="edgeStyle=none;rounded=0;orthogonalLoop=1;jettySize=auto;html=1;exitX=1;exitY=1;exitDx=0;exitDy=0;entryX=0;entryY=0.5;entryDx=0;entryDy=0;startArrow=none;startFill=0;" parent="dhRZBU3aFt9_n93tNdM4-19" source="tTJR73BYCqFCVG73Lhry-39" target="DEALhcKuOMUuAGFNjWsx-153" edge="1">
          <mxGeometry relative="1" as="geometry" />
        </mxCell>
        <mxCell id="dhRZBU3aFt9_n93tNdM4-9" value="13" style="ellipse;whiteSpace=wrap;html=1;aspect=fixed;strokeWidth=2;fontFamily=Tahoma;spacingBottom=4;spacingRight=2;strokeColor=#d3d3d3;" parent="dhRZBU3aFt9_n93tNdM4-19" vertex="1">
          <mxGeometry x="17.5" y="302" width="20" height="20" as="geometry" />
        </mxCell>
        <mxCell id="tTJR73BYCqFCVG73Lhry-2" value="Direct debitÂ &#xa;application form" style="shape=image;imageAspect=0;aspect=fixed;verticalLabelPosition=bottom;verticalAlign=top;labelBackgroundColor=#ffffff;fontSize=12;image=https://image.flaticon.com/icons/svg/1467/1467549.svg;" parent="dhRZBU3aFt9_n93tNdM4-19" vertex="1">
          <mxGeometry x="50" y="287" width="50" height="50" as="geometry" />
        </mxCell>
        <mxCell id="tTJR73BYCqFCVG73Lhry-20" style="edgeStyle=none;rounded=0;orthogonalLoop=1;jettySize=auto;html=1;exitX=0.5;exitY=1;exitDx=0;exitDy=0;startArrow=none;startFill=0;" parent="dhRZBU3aFt9_n93tNdM4-19" source="tTJR73BYCqFCVG73Lhry-2" target="tTJR73BYCqFCVG73Lhry-39" edge="1">
          <mxGeometry relative="1" as="geometry" />
        </mxCell>
        <mxCell id="MaFsSqHFL_aDIbuKhQJ8-29" value="Paper application&#xa;forms" style="shape=image;imageAspect=0;aspect=fixed;verticalLabelPosition=bottom;verticalAlign=top;labelBackgroundColor=#ffffff;fontSize=12;image=https://image.flaticon.com/icons/svg/1467/1467549.svg;" parent="dhRZBU3aFt9_n93tNdM4-19" vertex="1">
          <mxGeometry x="50" y="480" width="50" height="50" as="geometry" />
        </mxCell>
        <mxCell id="dhRZBU3aFt9_n93tNdM4-13" value="12" style="ellipse;whiteSpace=wrap;html=1;aspect=fixed;strokeWidth=2;fontFamily=Tahoma;spacingBottom=4;spacingRight=2;strokeColor=#d3d3d3;" parent="dhRZBU3aFt9_n93tNdM4-19" vertex="1">
          <mxGeometry x="17.5" y="495" width="20" height="20" as="geometry" />
        </mxCell>
        <mxCell id="tTJR73BYCqFCVG73Lhry-18" style="edgeStyle=none;rounded=0;orthogonalLoop=1;jettySize=auto;html=1;exitX=0.5;exitY=0;exitDx=0;exitDy=0;startArrow=none;startFill=0;entryX=0.5;entryY=1;entryDx=0;entryDy=0;" parent="dhRZBU3aFt9_n93tNdM4-19" source="MaFsSqHFL_aDIbuKhQJ8-29" target="tTJR73BYCqFCVG73Lhry-39" edge="1">
          <mxGeometry relative="1" as="geometry" />
        </mxCell>
        <mxCell id="COK3GCsZX3T8CLw1UcPQ-58" value="Apollo" style="shape=image;verticalLabelPosition=bottom;labelBackgroundColor=#ffffff;verticalAlign=top;aspect=fixed;imageAspect=0;image=data:image/png,iVBORw0KGgoAAAANSUhEUgAAAFsAAABGCAYAAACjfujcAAAVMklEQVR4Xu1cd3yUZbZ+pmX6pGcmDVBBYgwtUkJVkBIgFLGDi6grNrh6vet1LVjRdd1d3bVhWQtXRUSR3pQSCE0IXQgdRMjMJJNJJm36993feecb0mYykzDB4f7u+2fylfd73vOe95znPGdE+OwsjytlcDxAsxWLANGVMumGeYquCLAJYA8PuVyEeLkEZrsXvIcHpFcW4tEPNgeA4zG1mxqPXqdDJ40EhytdeP2ADUUXHIBMfMWYeHSDLVj0szfE4rUb4puAanNxuGezBStP1wExVwbg0Q22i8PDOTrMG5wY0HornF6MXGvGfrPzirDw6AXbzSFXL8eWcQaoW3EVO8ocGL3GjFry4XRwRvGITrA5QCbisW6sHsNTlSHhe35PJV4rrop6dxKdYJP76KHDvEGB3Udz9MvtXvRdYcQ5myeqI5ToA9vLI0Epxu4JqbhaJwtp1f4L3jtSjdlbK6Lad0cf2C4Of8qNxd/6JYQNNF1Y4+bQf4URRyvcUWvd0QW2l0eiUoK9k1LRSSNtE9h08esHqvDczsqo9d3RBXYbfXXz1fi11oM+y0pRaecASfRFJtEDNsdDIhJhW4EBA1LkbbZq/w2zdlTg/YPVUWnd0QO2i8PoLkqsG2NoN9B043azAzetNsNN2WeUGXd0gE3AeDksGJGMu6/RXBLYTi+PoatN2G2MPt4kOsD28kjXSrFnYir0SsklgU03v7yvCi/tir6DMjrAJlIpS4svb0y6ZKDpAUcqXchdboKTpfAReWREHvL7gE1ugxe4DMGFLB6Vgild1BH5KHrIzWtN2HjO7kty/OWR39mHXz6wqcriJRh4FpZp5WLUe3h43Tw6x0qxf1Iq4uSX7kL8q/XGQRue2WllYBPGPC0uWToNIqx+h2pPx4LNAPZ9oEohQW6iDIP1CgxOkcPh5TG9yAJHPYfp2VrMHxYZF+IHe6vJgeFrzfA4OYzsosIT2VrstbhQXOHCbosLxho3QIUJiscvE/CRB5u5BaoV8tCpJMhLlmNUmgKj05XoES+DSOTbyxSiDV5uYtfNG5aIh7N0EXMh9KBqF8fIqRMmJx7OjcW8gQ2k1vk6D3v/ulIHtpqdOF7l9lk9ldk6kKaNHNhkJV6OTTYnMQZTr1ahIFOFnPgYCPg2AfPLk7WYvr4cMoUYReP0GJCiiCjY9LCpheX45lA1HsiNw7+DFCAsDi+KzA4sOl2P1eftqK73+gDvgPrmpYNNluzmIIoRY0y6AtOvUaOgkwraELXB5/ZU4vWdlbhaL8eeiQbExYTnr8n1Blq8QCs1r6QGj24sQ15nFXYUpIZczINWFxacrmXAnyFrpxdFEPT2g+0HWSbG+AwFHs/RYWRaaKKfvnh/hRNTCy0oMTsx8VoNlo1MCQrEmRo3VpyzY7PZgd9qPeyMjZWJ0TsxBgUZStyYqmBpfqCxu9yJgSuM4DjgmT6x+FOOjlXnQw1jvQe08z44WotfCXSy9AhwLe0Dm53qPEZmKPGfPXQYl6EKNX8cr3Zj/QU7frpgxyaTEzYHx/zk3IHxeK5XXIv7aXu/uq8K80/WgYy+b5IcWbEyqKRinKv1YI/ViVM2D/okyvBybjw7E5qPCocXucuFogKA7EQZxmcqMS5TibxkBRQhACTf/vGxGswrqYWl1uMLIy8hfGwb2BRdeHhcmxiDp3rqcF83basLbnV6sb7Uju/P2LHBaIe1zuuLeWlrkjVyPFbl6zEuoylQtJ2nbChDlYPDC7lxuP9aDTQyMVxeHh6eZ4CzQ7bMiRf2VGJjqQNz+8bh2WaLRtMdscaEzeeFeJuMhOOZy+ubFIPJnZSY2Ml3rrQ2SqpceO2ADV+frPOFr7L2IR4+2G4OUqkYj2Rr8FzPWOhVwfnmM9VuZpELz9ThWKXbF52QFTW2JI6HOkbMUvTusQ0VmaM2NwavMKK7Toqlo/RIUUow/0QtFp6uw6laDzwcjwS5GDcZFJiVrUUXjQxv/WLDf22zYm5ey10yo8iC+UdqmrKAghaFIqE4lQT56Uo8cK0GI9KUrQYjy36twzPFVSixuABa8DZmp6HBFnxzjxQ53ugbh3GZwV0GiWc+PlaLb0/XwVzjafB1gQzBy+OaOBl2TTAgQfCjLo7HkJVG1Hl47JmUBvKd9xRWYHupvSEZoWcJYMWrJXi1Xzwey9LincPVeHxHBVbn6zG2kVt7YW8lXqVicLADW9itIpmInTkzszSY0lkFcZBzwGT3Yu7+KrxPC0jzaMMB2jrYQkJy77Ua/K1fPJKDkETkQ6kG+MmxWlRR6NTcigPtUTePfgY5thYYECPEtu+VVGP2DiuO3ZbOopmhK404VeECc9pBFozcwjtDEjE7W4exP5pxpsaDfZPSoBRAYLXJbVbfnFrb/YJRQQKMyVDiqZ6xuLmVA/+b07X4758rcb7aEzZ3HhxsNw+NQoy/94/HQ1nagC6N6MwPSmrw9uFq/Eandjgg+8WRHI+xXVRYPVrPnk0ZZe+lpRiQLGfZ5B2byvDd0TpAEWKvenmmKzk0JZUlMr2XGbF6lB5jM33nAO2yuzaWN8w/VFQhgC6NEeOOq1R4vncsrosL7NOPVLmYcWz81e4DPIQrDwy2i0PXhBh8OjQBwwyBw7kikx1z9tp8h0+48aiXR3aCDD0SYvDt0VrcnaXBgpuSGRD7KlzIW2nE2tEp6KKRovviUrhpZ4WT0Tk5zOqlw7sDE5GzpBTDU+V4N8+XMa47b0f+ahMGpikQFyPGGgImnK0vuJcUrRR/7hmLR67TBoxeat0cntxlxSfkVvycS5DTtinYwqoOy1Ri/rBEdvg0H+RX5+6rwj8OVaPeSWqa0CvKniGweyvGpMDq4nDv2nLc31uHT4f4OJGFp2sxc7sVF+7MYNb4YKEl7O1JEVJWggxHbk3D7J1W7KtwY9t4X8Vni8mBG5cZMbmrGm/1i0e/FSZU2AVXFzJgFagHjsfNmUq8nZeAHkEil78etOHPuyt93xlk9zSALQA9pasa/x6ShHh5y+37S6ULT/5sxU9kHeG4jMYf4+IwKEPJQHh6txVv7qzEwzfEY94gn2ThvZIavLSvCpapmXi62Io399jCB1uoyp+5Ix3vl9TgsxO1OHZrOtvVW80ODF1mRFaSHCVT0sBA2WEN/9l+Q3FzSNZI8Ea/eNx/bWC3+tnxGszaboWdanIBdo8PbAHoe7I0zNJiAqzM0l/r8Og2K4wUZYRrzX6wKcXmeKzJ17PD574iC77Yb8MjN8TjAwHsT47V4OniKpTdnYG/HrLh+bZIErw80rQSnL4tg0mJl5yrx8HJaeztDOzlJqTrpAxsMqEeS0txpqod6imK03kej+bo8Ga/+IAaxO/O1OH+LRbUuloCLsKnZ3niNh68Xst8njwA0G8esmFOcRVc7RWguzkMy1CicKyBufc7N5Vj0S/VmJkbh48EgujHC/WYuL4ch29JA0kSbl5lAiRhuigXh5s7K7E+34BxP5khF4uw5GYfBbDZ5MBNK0xIVEuwb1IqMtVSvLKvCi+2t2xG4Z6Hw6hOSnw8JAldtC3zjVW/1ePuTRbUOL2+eFwYInx4ip+WpcX8oUmQNDuMKIF4encl3jpgaz8/wDTWHD4fnoQZ3Xzbb1phORYcqsa9vWPxxVCfz6aYOvuHUrzcJw6PZGmRtaQUp62u0HIyYVcuGp2C8Zkq6L/5DXNzY/H49bHsuWvP2zF2DYEtxb6JqcjUSHGuzoPcpca2+e7GLpHe6eKQkxLDSnm9E1tKLxafrcP0QgsrkPh9uOjWDWb+qxuTW5y0Dg+HB7dV4Kujte3Kli7Ozcujk07KYl/K/Gg8tK0CH++twi3ZWvwgWCD9/c6NZdhT4cLJ2zOw4FQtpm0obyD3gx1mDi9GXKXChnwD/n7Ihuf2VuHolDRcpfUd7hQPT/2xHBnxMuydmHoxV3hshxUfHGzDuRDo/S6OuaeFI5IxRN+SIiYG8Q+FFkaEEeAiq8PDN2fC6j0c8zvfHhdU/e2jAnzTc3F4oncs3h7QoN17trgSf9lZiaFXq7ApX39xRxEH0WOJkcW2L/WJwyv7KvFisY3xGRczQFbj8rV+kDikX7ocK0fpWZyetfgCZmZp8c9G73rnSDUeL7SgO1G5k1KhFrY1cTZj1paxJDBUfNxq0OLmkaQW4+ubkgOSYZSDPLndyjyDiGfFuYZBod29W8qxkBKKMAL1VidCByPPY9UYSqEb4vV/Ha7GE5stuD5VgZ8Lmord/3XYhie2VuDT4cns1F9ytg6v7rfhQKUbnIe72C1Gkoc7r1GzzLbazSFvhQlaqQhFBQZGWvmHnzcf2FmJreNTL4btVS6fEPOENQJCTIpU1FL8MDKwhT/+sxXv7Lc1BZtgf3CbBZ8erml7xBEIdRYlSLFnQioMqgYemWV168uQoKFCrwGZ6qbxPAsN99nwZM9Y/KV/PEvnd5U7QSQVMX8GpQR5KXIkKSRYd74eDxRVQCEVYd0YPa5pJjP2nw9Te+iY9TUef9hc7nOTkejJcfMwaCRYNSYFuc18uMPL4daN5U3BnrO3EnN3C6TNpbgO/xe5OYzspMJP+b6U3D92ljswZJUZXi+P7RMMGBigJPZhSTWeKa6ESibBjG5q5Gco0UktZbhYnBwr3hLBX2h0YEInFeu7oUVoPLycTx2146wdcwYl4JXcprz5p8dr8MdNbUieWt3GPpd5XVIMVo+hLLipAVHh46IbIZL8oaIKX+rdRuow6BxcHJ7KjWMxaeNRWu9Bv+UmlFpdmDciGQ8H4V7O1rpBpa3FZ+0wO7zsUJeKRLATHyIF+ifJMStbxxYi0KAIp+cyIyw2N74elYKpzaRtxJv3XW6EmzjqSH2zk8PgTAXWjtY3cWfsaCCfXWRyIH+dGfWU+YQiakKtbtMDAJ+PSMaMbk31exdJ/VN1mNE7Fp8L4V+wR9e5OeZCztd5WfGAOA7iwDMI8VbGJqMDI1YaIYsRY2eBocX2pva+PsuMvnpjOHxJON8uhKJ/zNHhk2ZFZtH5WjdP+ooTRGVGsoGTDkcA6/P1GJHWMiyi+P3NnyuRk67A7ompIUtU4Xxn82te3l+Fl7ZZ0d0gZ+9oXoSm2GDoajO2sebVSPhNYQZCbvHe0EQ8dl2DRIPF2YspxAvAhbTnAy/ew/FQysSsOBCo7LSh1I6Rq8xQxIiY1fUKkBhcyvu9PI/ha8woOl2PaT20oFwi0JiyoRxLTtVG1tDoRV4esXIxCscZWHGauRF8dJpnKWUEF5Y9meOhU4ixd0JqiwiB/k2uoc9yI06UOfHRiCTM7B5Zkc6Jajfzx9U1XswflYzpXQNLke/dYsH/lDQrm13KKjdzo3npChYgaKQkg/vkDEn+I/X4hudwPGIVYhb2NQ/H/BfN3mnBe7ttuDNHh4XDA1teeyf2+fEa3L/RgpQ4GQ5OMkCvDOzf7y+y4PPmNcr2vjTQfS4vXs1LwPO94hC6BtneF3M8NHIxiic0Leg2ftza8/UYu8aMeJUUhyanIj3EgdeWqdy6sQw/HK7BPb10+HJY8IWctrkcCyIVaweaoJeHTi5mncodBzYFNmJg6zgDS0ACDbuHQ/+VJvxy3oF/Dk/C49dHxpWcrHaj11Ij6h1eLBmdgsmtSJELfjJj1Zn6yPvsxh/s5DD+GnUHgk0vc3NYNCoFt18VXHf9QUk1HttgwYAuShSNM0AWThkshImz9uodVlxHkU5BatDed0p6Bqw0YY+JfmigA1ypf56CHr3jLJte5OLw6oB4PN+7peLJP49Kpxf9V5hwqtKNwgI9hoXRq94a1jaXFzesMOF0uQsfDU/Cg90DV1XoGaZ6L0t6yusF2UVb/FRbryU9ZIf+ko6Lw6SuaixtRKMGmuOItWZsOlmHu3K0+KYZf9HWb2Lq2A3lIB3I9gJyYcHVscT8jVptvjz6bJZ3dORvRHl4dImTskMyURFY0FhoJKrTDJcXiJH6+iBJ19eeQWfAwFUmHDC7GA97ezc1Fg0PLtpkVO+ey/drDh0LNltNHmvH6ANyvcQyTlhfhlWnhKTKxYGqRl+1s5GJ6pgzN1su9tFQBl40Xh/QukkmMWy1CTsvYwtfx4It+O2ZOVp8NLhlGwe1Yty0xsw09IwI4sGo0jm9YpGklDBdH5OOAGiu9CVCiuqlft26m+fx4l4bjpO20J83kGQiW4MvhrYM/XaVO3DjajMcngiSUCG2Y8eDLaStxZNS0bUZ1zxjiwXzm2dvAq/A5k1I+xWvTOPXuM4hsJONanwsC24czXh5aGLEzHeTMKjx+I+dFXj3wOVtu+54sOkLSbHUOxbv5jWUxkiDMmCFCfVuX2tIi+HmcEc3NWZnxzK8ieug0lfjQeLHzUYHXt5bFZwadnK4L0eLzwQxEN1P76bKDlEGYSmu2nOABLjn8oDN8VBJRFibr8dQgy86eGCrBZ/9UhOYAPPy0KslODA5LayO30nry7Cc/H6gigtxNDFi7GokTZ68oQzLSGsdiQpNGxbi8oBNE/Lw6Bovw8pRKSBBJh1ONpKvBbJqF4dnb4jDa32bFh2Cfdcmox0j15hBkWxAQs3F4TEqsfWNA9U/51A1KpSqtQ0ghnvp5QNb8MFpGglTXJ0lqW0goL08UtQSJjtoC1dy+6YyfO9XAzT/eqE4TwUHciHgI1iNChdpRrF2ZJwdaCJ+vxuMaXRzmNpdi3fy4ln5y98KTesiCyJQl0pEKC5zYPKGclAyGLDE5e/P/B0s2g/D5Qc7lCXwQIpKDLVE7G8OvigMDVZIouOVdsvJag8cFJ10IM0Ravqt/T/6wKbZ+nteSCdCg4objVqzGZj0N7J8+ru/M/cytUW3F/DoBFtIbgalxCCGfsqozIl0tYQVeAlfSnaKLS5000mZfOGA1QVzPR227YXh8twXnWB7eWRopTg4OZU1ifZcWopZWVomLaNBzB5Vxd8bmMja+qZttmDB0Q4qbUVwHaIWbIpIDk1OY6152T9cwEPdNReVqdRM2mOpER8OSmB9jNO2WLCgo+qI/+fB5njEKcTYPykNnTVSdP3+AtOePN/LJwOmzluy9o8GJbLCxF2FFnx77P8tu312ITSknrotnWWQXb47jwe6aTBHKEJQq3WnRRfw9Y2JuKWzGncXlmPhsQhp9to347Duik43QkmIRIR/9ItDmkrKdOJD9XJWdeF4HufqvCBl6CPdNUwAT704u6i0FSlVU1jQtf2i6ATb/x1EFFEyQgF289CP/ib0onf0j7K0HdbAd/wvDksOSDDmC/wAAAAASUVORK5CYII=;" parent="dhRZBU3aFt9_n93tNdM4-19" vertex="1">
          <mxGeometry x="446" y="480" width="64" height="50" as="geometry" />
        </mxCell>
        <mxCell id="tTJR73BYCqFCVG73Lhry-28" value="2" style="ellipse;whiteSpace=wrap;html=1;aspect=fixed;strokeWidth=2;fontFamily=Tahoma;spacingBottom=4;spacingRight=2;strokeColor=#d3d3d3;" parent="dhRZBU3aFt9_n93tNdM4-19" vertex="1">
          <mxGeometry x="420" y="515" width="20" height="20" as="geometry" />
        </mxCell>
        <mxCell id="3j8oUQN09gYwykHITEtm-4" value="Contact centres" style="shape=image;imageAspect=0;aspect=fixed;verticalLabelPosition=bottom;verticalAlign=top;image=https://image.flaticon.com/icons/svg/1067/1067566.svg;" parent="dhRZBU3aFt9_n93tNdM4-19" vertex="1">
          <mxGeometry x="570" y="480" width="50" height="50" as="geometry" />
        </mxCell>
        <mxCell id="dhRZBU3aFt9_n93tNdM4-6" value="14" style="ellipse;whiteSpace=wrap;html=1;aspect=fixed;strokeWidth=2;fontFamily=Tahoma;spacingBottom=4;spacingRight=2;strokeColor=#d3d3d3;" parent="dhRZBU3aFt9_n93tNdM4-19" vertex="1">
          <mxGeometry x="620" y="495" width="20" height="20" as="geometry" />
        </mxCell>
        <mxCell id="tTJR73BYCqFCVG73Lhry-6" style="edgeStyle=none;rounded=0;orthogonalLoop=1;jettySize=auto;html=1;exitX=0;exitY=0.5;exitDx=0;exitDy=0;entryX=1;entryY=0.5;entryDx=0;entryDy=0;startArrow=none;startFill=0;" parent="dhRZBU3aFt9_n93tNdM4-19" source="3j8oUQN09gYwykHITEtm-4" target="COK3GCsZX3T8CLw1UcPQ-58" edge="1">
          <mxGeometry relative="1" as="geometry" />
        </mxCell>
        <mxCell id="COK3GCsZX3T8CLw1UcPQ-40" value="Retail store" style="shape=image;imageAspect=0;aspect=fixed;verticalLabelPosition=bottom;verticalAlign=top;image=https://image.flaticon.com/icons/svg/1326/1326546.svg;labelBackgroundColor=#ffffff;" parent="dhRZBU3aFt9_n93tNdM4-19" vertex="1">
          <mxGeometry x="334" y="480" width="50" height="50" as="geometry" />
        </mxCell>
        <mxCell id="dhRZBU3aFt9_n93tNdM4-7" value="15" style="ellipse;whiteSpace=wrap;html=1;aspect=fixed;strokeWidth=2;fontFamily=Tahoma;spacingBottom=4;spacingRight=2;strokeColor=#d3d3d3;" parent="dhRZBU3aFt9_n93tNdM4-19" vertex="1">
          <mxGeometry x="305" y="495" width="20" height="20" as="geometry" />
        </mxCell>
        <mxCell id="tTJR73BYCqFCVG73Lhry-25" style="edgeStyle=none;rounded=0;orthogonalLoop=1;jettySize=auto;html=1;exitX=1;exitY=0.5;exitDx=0;exitDy=0;entryX=0;entryY=0.5;entryDx=0;entryDy=0;startArrow=none;startFill=0;" parent="dhRZBU3aFt9_n93tNdM4-19" source="COK3GCsZX3T8CLw1UcPQ-40" target="COK3GCsZX3T8CLw1UcPQ-58" edge="1">
          <mxGeometry relative="1" as="geometry" />
        </mxCell>
        <mxCell id="tTJR73BYCqFCVG73Lhry-19" style="edgeStyle=none;rounded=0;orthogonalLoop=1;jettySize=auto;html=1;exitX=0.5;exitY=1;exitDx=0;exitDy=0;entryX=0.5;entryY=0;entryDx=0;entryDy=0;startArrow=none;startFill=0;" parent="dhRZBU3aFt9_n93tNdM4-19" source="tTJR73BYCqFCVG73Lhry-1" target="COK3GCsZX3T8CLw1UcPQ-69" edge="1">
          <mxGeometry relative="1" as="geometry" />
        </mxCell>
        <mxCell id="MaFsSqHFL_aDIbuKhQJ8-19" style="edgeStyle=none;rounded=0;orthogonalLoop=1;jettySize=auto;html=1;entryX=0.5;entryY=1;entryDx=0;entryDy=0;exitX=0;exitY=0;exitDx=0;exitDy=0;" parent="1" source="tzZtZtUzTntlYtjN_Du5-1" target="COK3GCsZX3T8CLw1UcPQ-99" edge="1">
          <mxGeometry relative="1" as="geometry">
            <mxPoint x="1060" y="420.17" as="sourcePoint" />
          </mxGeometry>
        </mxCell>
        <mxCell id="tTJR73BYCqFCVG73Lhry-5" style="edgeStyle=none;rounded=0;orthogonalLoop=1;jettySize=auto;html=1;exitX=0.5;exitY=0;exitDx=0;exitDy=0;entryX=0.5;entryY=1;entryDx=0;entryDy=0;startArrow=none;startFill=0;" parent="1" source="3j8oUQN09gYwykHITEtm-4" target="MaFsSqHFL_aDIbuKhQJ8-2" edge="1">
          <mxGeometry relative="1" as="geometry" />
        </mxCell>
        <mxCell id="tTJR73BYCqFCVG73Lhry-4" style="edgeStyle=none;rounded=0;orthogonalLoop=1;jettySize=auto;html=1;exitX=0.5;exitY=1;exitDx=0;exitDy=0;entryX=0.5;entryY=0;entryDx=0;entryDy=0;startArrow=none;startFill=0;" parent="1" source="3j8oUQN09gYwykHITEtm-5" target="MaFsSqHFL_aDIbuKhQJ8-2" edge="1">
          <mxGeometry relative="1" as="geometry" />
        </mxCell>
        <mxCell id="tTJR73BYCqFCVG73Lhry-26" style="edgeStyle=none;rounded=0;orthogonalLoop=1;jettySize=auto;html=1;exitX=0.5;exitY=0;exitDx=0;exitDy=0;entryX=0.5;entryY=1;entryDx=0;entryDy=0;startArrow=none;startFill=0;" parent="1" source="COK3GCsZX3T8CLw1UcPQ-40" target="MaFsSqHFL_aDIbuKhQJ8-2" edge="1">
          <mxGeometry relative="1" as="geometry" />
        </mxCell>
        <mxCell id="tTJR73BYCqFCVG73Lhry-7" style="edgeStyle=none;rounded=0;orthogonalLoop=1;jettySize=auto;html=1;exitX=0.5;exitY=0;exitDx=0;exitDy=0;entryX=0.5;entryY=1;entryDx=0;entryDy=0;startArrow=none;startFill=0;" parent="1" source="COK3GCsZX3T8CLw1UcPQ-58" target="MaFsSqHFL_aDIbuKhQJ8-2" edge="1">
          <mxGeometry relative="1" as="geometry" />
        </mxCell>
        <mxCell id="tTJR73BYCqFCVG73Lhry-21" style="edgeStyle=none;rounded=0;orthogonalLoop=1;jettySize=auto;html=1;exitX=1;exitY=0.5;exitDx=0;exitDy=0;entryX=0;entryY=0.5;entryDx=0;entryDy=0;startArrow=none;startFill=0;" parent="1" source="COK3GCsZX3T8CLw1UcPQ-69" target="MaFsSqHFL_aDIbuKhQJ8-2" edge="1">
          <mxGeometry relative="1" as="geometry" />
        </mxCell>
        <mxCell id="tTJR73BYCqFCVG73Lhry-27" style="edgeStyle=none;rounded=0;orthogonalLoop=1;jettySize=auto;html=1;exitX=1;exitY=0.5;exitDx=0;exitDy=0;entryX=0;entryY=0.5;entryDx=0;entryDy=0;startArrow=none;startFill=0;" parent="1" source="MaFsSqHFL_aDIbuKhQJ8-2" target="COK3GCsZX3T8CLw1UcPQ-27" edge="1">
          <mxGeometry relative="1" as="geometry" />
        </mxCell>
        <mxCell id="MaFsSqHFL_aDIbuKhQJ8-2" value="BOSS" style="shape=image;verticalLabelPosition=bottom;labelBackgroundColor=#ffffff;verticalAlign=top;aspect=fixed;imageAspect=0;image=data:image/png,iVBORw0KGgoAAAANSUhEUgAAAC8AAAArCAYAAADottG6AAAFqElEQVRoBdVZ229URRj/zZxzdvf07G5boJRqgeVWro0gFR/UEjQFjCSGxERFEn3UkPDCKwk+8B8Y4yVeXkiIxqjIgyIoJAJpFJCb5V4u6Rot1LLbvZ09lzEzp2fZs6fb3Spbdk+7mZlvvvnmN9+ZM/Obb0gsFmOYyhNsAovOALQIoIYBVQULBEEUBQgosLktwsAUBYwwEEMHwEAIA/J5EDMP5HUglwVJp4F0GiSRALK5qaAQunKlFiwUBpasAYuthN25BNDCAOH/tgDEAfIfFakNxv+IDXu8zPVA+I8V2vA8l7k2CM+nUyC3b4NdGwQGroOkM5WggZTzvN02D/a6LQI4KBWdcw86QGoAvmiQFjOBgauQjv0KEh8uOwif55kSRL53O6xVz0GiDBL3Egc9nQ+lYN1d0LsXg575A8qBYyC64UPgAW83t0N/eRdY65wHnvY1mUYBIbB6VsCOdSDw6QHQkYSnc+qWmNaK7Cu7Ybd2uKK6Se1ZzdDf2QrWEvZgcsATAn3TDrDwDE9lPRVYcxjGG30AIQVYAry54nlYnSsKwnrNWAs6YD69rACPMkJhPLW1IKj3jNnXA0jOhJHt2GqwyMyyK0o0KOODzSuxsLVpfFzOyvPg5Tlrkfs2+Trvf0pkorHfDrc0OHYfb588hISR9ZvhKFs02KtioOcGIVtdz06o5Ao3zJ+J3nnT9y08rkWwoWMevr1zxYXgS60nFgjw1Jrb7assFgSkYh8X19QuH6DSpMbtrk7x4cpQI2WnTKmFoWQW755wPELG+YqgB0ARPeCtOD2AoAlcz9mZOT0Y5zhcJjY/TjE4Dhsf9/aVdle+3BQEoio8m1R5bacmmTdxaHC4JtymUt+l9faMCAqbVGll3ZejTY0LnoVDjQseQaVxwbNQA4OHIjeu5/mC0rirjSw1MPiG9rxpNbbnp0QPogEZmxbOFpuvy1MeFreZ8o5umFPjNp1RFZ+8uHrK/dSiAdHNytPGLjlH1AJIqU2bVdFpLl8ZfH/8Pu5m8qX2a1a+m8ugf/jPivZJKld52sTHcuj57ATCQb4lFEfMHG7uzPlK4T6Hv7vhvQnDfSJixpAydRiwBO2edATJTGXw3AB/jUndLAH/cGOV8R170LbrLQQX8VPSpLBFJRlJQia5MYhgamV9n4ZECPauX4V1c1qhKs7RrdIB3GQ2riUS2Hn8F6QMb2T4/pc/oOXVzZAXPebryyPI5IBkFjK9fQ720mc8ddUWdvYsxrblc6tVL+jFIhF82Lseb/78I3hc2X2yF05D7V6L6GsboUwyAHp1CGAMsnTtJMz/CH7tnBbEx7Kiezf0YTEbKYNPsfGQSBE4R8Lj98DMUAgdmoZ4eszFLlI+gFD3k4i+vhFSmQFI528JXZneOguSHAZrbvMYqaaw/eBvIjb//+Lz/p5yF86IAYS39UFe5I2dkkQK5MJN0YgSZkM5dcBv4RFL+ADG9h+GcSPuQSIfPg1Y4v7FWeflgaOQhgY8SvVQ0M+fQWr/ERg3nHWf3oxD6r9UgObwecYQPPQ+aOqfQkW9ZPTzvyO9/wjMc9cR2HdYfKgutsJhhKRHEfpqL+iI9zW5io8yTZ46hcx73yB/z/txF8BzcDTxN9Qv9kC+eNQzwkcJnPcdDMj46851jI5mkDec+S7w+oAZOgI/fY7Qvt2gl/sBy1n2fHrTLGhuDuPWzUueAZTl83RkCPT7j4CjGtjiNbDnLwebuxQI89hmDZ4qmGR7exuuXD6LpctWo312uApuk0uDXDwO6eJxgZhfGCM6C0SLgKkaiKqBBQIgigzwi2RKxf0sERcADLDHORGznQtlwwAx8kAuA5LJAKmUc4lccu+aTuegaSHRp9o0a0JvlfX8hNp8c+S31/fiwL0H/MnlUW5arm21cg48EmnHdwe/xpaXXhDNolEVasgb+v4XG+6HvBlKmywAAAAASUVORK5CYII=;" parent="1" vertex="1">
          <mxGeometry x="340" y="227" width="54.62" height="50" as="geometry" />
        </mxCell>
        <mxCell id="QY_VV6FcXAard618ne-8-9" value="1" style="ellipse;whiteSpace=wrap;html=1;aspect=fixed;strokeWidth=2;fontFamily=Tahoma;spacingBottom=4;spacingRight=2;strokeColor=#d3d3d3;" parent="1" vertex="1">
          <mxGeometry x="400" y="267" width="20" height="20" as="geometry" />
        </mxCell>
        <mxCell id="COK3GCsZX3T8CLw1UcPQ-99" value="Reporting and&#xa;Analytic teams" style="shape=image;imageAspect=0;aspect=fixed;verticalLabelPosition=bottom;verticalAlign=top;image=https://image.flaticon.com/icons/svg/1584/1584911.svg;labelBackgroundColor=#ffffff;" parent="1" vertex="1">
          <mxGeometry x="923.69" y="340" width="50" height="50" as="geometry" />
        </mxCell>
        <mxCell id="tTJR73BYCqFCVG73Lhry-22" style="edgeStyle=none;rounded=0;orthogonalLoop=1;jettySize=auto;html=1;exitX=0.5;exitY=0;exitDx=0;exitDy=0;startArrow=none;startFill=0;entryX=0;entryY=0.5;entryDx=0;entryDy=0;" parent="1" source="DEALhcKuOMUuAGFNjWsx-153" target="MaFsSqHFL_aDIbuKhQJ8-2" edge="1">
          <mxGeometry relative="1" as="geometry">
            <mxPoint x="340" y="257" as="targetPoint" />
          </mxGeometry>
        </mxCell>
        <mxCell id="tzZtZtUzTntlYtjN_Du5-2" value="" style="group" parent="1" vertex="1" connectable="0">
          <mxGeometry x="919.9999999999999" y="450.17" width="50.690000000000055" height="50.170000000000016" as="geometry" />
        </mxCell>
        <mxCell id="MaFsSqHFL_aDIbuKhQJ8-15" value="Reporting and &#xa;analytic tools" style="shape=image;verticalLabelPosition=bottom;labelBackgroundColor=#ffffff;verticalAlign=top;aspect=fixed;imageAspect=0;image=data:image/png,iVBORw0KGgoAAAANSUhEUgAAAKwAAABaCAYAAAAl+r3cAAAgAElEQVR4Ae19B5xdVbX+d8qt01smZSa9N9J7QkuoghQRLKjYRf+IghVFVBSxIuIDlCrPJ1VA6SQQEhLSA+l10jO93Dtz+yn/37f2OZMJJrbHzCOSm8wtp+yy9tqrr3U088zPujj5OgmBEwQC+gkyzpPDPAkBgcBJhD2JCCcUBEzgpERwQq3Ye3ywpuaeRNj3OA6cUNM/ibAn1HKdHKx5kr6eRIITCQKmpmkn0nhPjvU9DgHTPSnDvsdR4MSa/kmz1om1Xu/50Z5E2Pc8CpxYADiJsCfWer3nR3sSYd/zKHBiAeCk0nVirdd7frTmiQKBv2d8O2lLPlFW8X8/zhMklkD7BxEPJ1H2f48KJ0YLJrQTYbE5xuPR2BNh/CcGMpwIozxhRIKTUWUnAjp1/xhPSKWL7uSTHrruR453Yw8m3He3ZYsMXyFnV9bvioDAMAgNlG+PJy68G0F+ckz/GwiYYCyBv95dccI/1rV1/3zXc/4xXtf1uH+ff57I5X13NVeQjMhGbUpu0xxiJlxNg+NqcHMWkEoA3E+mAUNzBDVlvNBgORpguYBuApEIdNOAxPG4vvDA1tmyQ5T3BueA8b8uDOlH4zl/fP74/fHI+P0JcVxdtgX70LTO+RyZOK/r0t3bYeD34R/npz+0t207vzcfZv4t/nDVRvV++cM8qj1/IOqgakddKGMkRPzGvMZ5XMVHd22Qc+0c5JHxdr236+Vdj/uDPt55//g/e48mqNC5wn7z6vNYjfhXHO/c8Y7zvs5z/OLCdXVZdJ5S4zbgujbs9higOxjYrxLTxk/C8KoKTB4/BiWFERgCZIXsBxtiWPXmRmzfX4dVG7ehqbUVCIQQCIegQ4cDE46mQ3ddaJoNCyY0zYXp2HB43jvnT0k+vTGqDcVx6VwtOaXe2TcP6d4m8xfdhS5IzJN+I0e1fOSHd/rIAbWl2JviFeoChzAC+2HPPMazDnQZCDc6zx6nLxdwvN0rbQoMuHd5swZbTUZogY/InCb7JIykv07OqzamuuX4/XWdz9989277p4/zwmPdQ2ISnPfxY536m7bfiQMEiqs50B0NOqmoUFrA1nTYiSR05HDurPG46v3zMWfSWFQWF//Dbjn4nbUNeHbpKjz49EK8taUGCEURDAehuQQ2KSyQ04OyQUwn56EASfexp+7oRJZOGift8FouGu8gMviZGkQbn1QRad9Otf7hBLwL2Lpq38Mm/7jfINv2kYnnhBMcfW3XvripwLlLo3KxRxqIwmre6m6+++1wXdQcFVK7MndCil1z7dTZrj317PceRVhOjZSNiGq4FjRXh2VrsOMNmDZhCG743JU4f/Y0oaSdYBDY8k0BWd5F6VLcXjd8YAPtmSwe+Oti3HLPI6ita0KguEQQS3cd2Boprkn6In0rinXk3s7++MVHDKGuvEbJ+apvNRa506O+6riPrPLrqOb+0Q8dtlxCpCV8ODailYhIiq/wjDrmwYG6h2LVx26dm5XnhagK9DhitSkMl/05wjzUNvSoqKtEJSK0oyvk5MbUXV0Q9+/1d+xRvPNHexhhdTiuDl2zBSCWyKkduPYjF+D7X/goCiNhWQ5FE9W+J7IpemcoOuCzXBF/FWv0waIrfomdhxvxtV/8Dk+/vAJGSQVMturYwsodnQhBocDn4f7dRz5lEclSXV7HhaYIQ7xV33m/ot5EAMrcpLJEEI7cH/2R9v7RN8V5DG9PkqqxfdtDUM/yKF17dF+QmjOwOmnj2/tQFNGTAuQkG+DW89qQX/zOF2FBQYrzyMkm5/z8TS1ERgQkhcRyy//RmxaY+7F/nST824OlTKlYS9a2oWXacds3P4NrPvA+r0WetD3li7ud4HUEWShPUjIVRUn7e+ZjTkdDFsDVN/8a9/7pRZglZRA8ZWuktH5bPvIfYz6kJorKATkrB1hZQNisBy5Nh2kGoUvDXGiFCj4nOEaTxz1E3BA0d104tgNkM+paQRr25wKGDiMYgKazH/6RfSv6eNyGuX0Unqo7OF8XsAhJywI4L4dig3+RCS0YgKHr0B1fTndhaw5c3RVR7u/11RPn/t7Kd0P/jgDQcmwY6Thuu+FqfOmScwDYsF0diruLrUpgKAgjNIAyGCmjWqydtXVojrUjk3XRFosjHA6iMC+MaMjAkP7VKAgEEQRwz3e+DFMD7n7kJRgl5YKA/3h3ki1bsFMdQC4nyDKwugoVJaUwdcAxdGRtB5l0Fgf2H0J7PKkWPBRCIBSRzfKvAI6IaidSgM0tZqOipBDVgwbCDJpQu0yH4zhob2/H3n37kMlwTAa0SBRaMPRP9Sf46LjIJpNALsvb0b+qLypKSxDQSc0B2wWSmRx2HdiPdCIDuEEgGIEeCtGmAt0hp1Piyr8yv3f62m5BWEXj/KF2/aVkKretBd/47BWCrEI/SEk0VyQ5Q77rcIW6EBcMkQ32Nzbh4ReX4OU3NmDTzn1obm2DppvIEZBk1a6LSMDEiEFVmD5qEN5/9jycNWU87rrhy9jX2IEXlqyDVlgAwyFVUqyNXXARdB7TbNkU2QQXNYEp44fiwtNmYcrYoRgxaCAG9CrrlK15d0cqjS01e7G/MYZXl63GSyvfQs3ew0CkEKFgEDYVN5d8QSk8NKXpriVAEbqoach1JAArg4mjB+Kc2ZMxZ+o4VFeUY/CA/ggbYqMQlk+JM5ZIY/uu3djb2IYXlq7BwtfX43Bjq8wpQBjBhc0dT2LscNMpGZYii5VkPwlMGDkY58+bhXmTRmD44IHoVV4qG5uD4pwS6Sxqdu/BwaY4Xlq+Ci+8sR41e+vhRIsQkM3BkSgxggogdRBZJxGF/PXu3k/NnHPlPyY6/+IYHF1p0aK7+MKUJ5HZqXbMHDsQz9/xIxTlRzolKuruZPmGQ2WCrMzhEkvPtz/+DH5572PYd6gZMIJAOATDUNTWkcUismkA2WkmA2TT0E0Nc6aOxY+/9DH069MLs668HrWtKQQDpL2k3Q5sKtKuDpN8U3eQi7Vg9JB++PqnLselC2YjP8hr/7nXobYYfvf4c7j9wafQlrCgFxZAt23osGBpAUALIOBkRMzJEY1bGzB25GB87ZOX4eIzZqAgRGr5z7+27K/DT+57GA/9dSECoSLoRgA53RJZ1HBM0NIhRKC5CSOH9cVXP3s5PnLmXET/pTm14YGnXsbP7/0z2hIZBAoKZHPnaNbTc9DsoIgOrp7ttKn88zP4967UjNkffccRVtkpKS8d3bSw/VQb/vLbm3DezIkgvSFcqVhBo1JE2mfKMeJffVsM1/zgDjy6aAVgBmHkkeUqdKP3y9eoeYxUi4oCUdwgvbAtZNsTCIYN/PBLVyCt67jptj9CixaDWrJHwKE5LmxdgxNP4Kw54/Hgzdeid4kyp7muQ7SGITKzouKkL8rGSdrliuWIfVNc4GvZ9hp87Pofo+ZgBwL5VKRsWHpIzRM2cqRp7TFcetYk/PaGL6OyKF/us8WhoSgyN64SgZRsyTGIjdQ1hH0LdRMRCbj5wT/hu7f9N7RoJQLICBxsnQqqCzvWjHNmj8d9N38NfcpKpR+C2tWp0BGOnp3ZE2E924EnG9PmqxjwG9t248rrvofdtXGEI6WwDBHiANeAIZYzy4OJdNGtb91CYcXdK+T1aIS1OpI4Y+ZovPzb70PXqOMqJUwQVlcGfbJogvtQaxsu+eJ3sWpdDbSKCiGgpFaErUPzC/V3EhGNwFIIK0jrKVTcLLruIpd1gY42vO/8mVi7bT8a6tphmDpyhgaDJBaAlWzGaVPG4snbf4jicECQFFQ6qNQYHiYeZxls2NBtIq+I2IJo62oO4MyPfR0xW4NhBhTDVewGVmsrLjtvNh788TcQIZdwbfHsMT5C95Wf4/TFWTo0eLjiq4MmVgsdH//B7fjDY0sQKIqKuGPpOpz2OOZNH4UnbrsJ5eEQbCq5VAx1qpyexeV4/ZAYUEbQXOhk95qJFbv34ryrrkMsHYIRCsjGcEQscATBxe57vPbeweOaOfcjR2PVO9C45qhFlg8lwkmrVqwV9//86/jEWXNhi9mGTF9RVqFXnkcmlXNw0TXfxUtLNsIsLVPGf+52Gv01emqUVq7RlivSl9KafcrnT4GUVKRVoeJZlJSVobklDkMQg7TSgOVY6B3VsPT+n2FoVR81LtdQFiwNaEomsWjlGtTWtSGR0ZCxs8jLC6E0GsD8GVMxqBcpV068xI6wfUtk6x89+Di+84uHoJeUwkAOtqvBSaVxyoAyvPrgL1GSF0VOvFWap2wCh+PteHXVOtS2xJDOULrJIZwXRkizMWHwAJw+ZTwMcgOa6ChW6KD/DrvqmjDjiq+iNe3IZrTsFMoKTbz64K8xtncvQXDKtrrYVg20JjNY9MZK7GlqQ0fOQC6XQUkkgOKIgdNmTMKwyt4CQm4OofYihxu45aEn8e1f3A+joAiGa4jYRtGDjiD0kBzbLUoXd6YoFmTVsgtdMaNUlBVg2qghAgzuSCpALm2ysuNpRuHe0XHrQ4/hpSXrESwpFe+XwAM5UHZyUlk2Cqr/ZojDV4oGP2jmIRXyXzSCsU1SLtKVlpZmaHoEZIjK4+UAyRguu+wSQVbKtexf0xxQF//9Y8/hl394GrsP1QEZZVoS9YQr6bqo7F2By8+bg+9+8aMoD4dFaaRIQxXo05eciwcffxE7G2LQwyGlnFgZXPuZDwuyOhRLwBgJmpkc3PL7P+Hux1/EoYYYkMtwGCLciMzhONCiUcwdNwQ/+9YXMW3YIFikguIcsDG0dzkmjx6Al5ZvRSAvCjfVgQ9cdpEgK0kllSOKXJSo/+vPi3D7vY9i18GDovDRXCbWCALZ0VBWXoArzjsN3/9/V6EsEvbgq+D6yfefjTufeh4HDsSgB0OeF1HpHJ5U4YO+2z7/Pr/7t7slIlLqEvomSOOk0xg1bCBGVvcVlDI8l6nGRROGSk1dx46D9bj9oUeB/DxhrxaRVNORsR04mQRmTRmBi04/BWMHVsBqT8BCQGRfBVKSc7KwLn8+Quu6sHfNIeqq8xaROWDg4vkz1UxpWuNW03Tc++RL+OJ37sDu2gQCkSKYZcUwS4pgFJfAKC1DoKQc9e1Z3P77x/Ghb9yCeMaCIdzEheUAlQV5OHXKCCCTFGR1M+0YPrgS586dIoomlUWTnijXxf/78W9w40/vxqG2HFBYDqO0AoHiUuglJTD5V1YBNxjBkjWb8IFrbsCmQ3UwNQ0BbhFvfy44fZYgJZwsgsEQLjvzVJkTt4Wwbt3A7598AdfceCt21bVALyiFWVYJs7gMgcJS6Y/26uakgd/e/zSuvP5mtCVpD6bFgbK4i8rCKM6dNA7I5MTxQ/FCxDJRCHoGZbsNYQktKlG+cqOgR6lVRCOR65RniMDwZEAATzy/BK0NMZihECzNUC7VnIWI5uD3N12DJXfdjCd/8R0su/9WfPKyM+G2N8uCEEnpxVI+cNp7PSpPCu+ZrGzQtkkgk34q1lpaXIAB5UohUVxNR3sqid8/8gxQUAwjChhaDjpFGN9QTwVRdxEKBKCX98PCl1bhzv95Qoi9SNPe2s0/bbZYBwSpUknMGzsUldGoUGIqjeQpz72xBnc9+gK0Xv0QCBliSRCZnoATOz8VLQ0BzUSwsAwHaurx4J9fFHAqjqQ6q+pVJjDNuRYKIiFUlZeoazSKKEAik8MDTz4LBA0YeUHRdm0QviFYIHcwVaxFBNAqyvD8wmW4809PSht841rydc6saYAp20B+Ey4yXn/nyNHue+sWhBUBnK4+CT4RFBXgd6Il10JT4YBqc/KMhrRlYeHylUCwCK4A0IbrWGKm+sE1n8Cnzz9T5E8SlcK8fNz+jatx+qwxcFoaZaeL54e2QaGqyrbLjv1gFcOzWnB8IgfncqgoLkJBfoEHYSVw0ymx69AhIERFyEbW4IKGhDKKP92l5K3DNmzoehaIFuDR5xaJOELPlx/e0Ke8TKieCBhmGBNGjJB+OFdScr6eXPQGYOkwDHWE8BBXqESE+aY7jot/FpBfiFfeWI2MWFYUkrEdgw4ByxGKnZcfRShEZY+SBfUEDbGOBPY3x4FAvpgOxaLCDUiEA42KtNkoL6NwvMJyPPzSK7K51AoqhK3oVcLORFKhlcDWKMt6ayw9du9bt8iwPiXyjf/+FCgkqBcDKggAjwKLsqUJFaipaxQqIH58IoZrIxLScOGsyXKrI4oX3atAnmni3puuwzmf+wZ27GkRO6Ei6XQ2eP5/0c79ERz5FOqkmchyncWjBTHXmK6L3mWlmDxmOF5dsQluSYGiroL45IxMgyPC2QiSUtP0FQhgf0sGf3ptHcoLI3BtB4EAsGbnQZgRMm5LZNJx48fKACjjkuxRdNi4aTcQjgj1VqMjOh+Bk2P42RU8bgJmDslUAjbVeLFg8FrvDhGzNGQtGxmHRiqe4hK7KC/Mx+jqPqjdsw1uWYEgqVART2yTTULEp3XE0WEHIjjQksYfl6xFn8IwLNtC2NDx1s7DCIbyJR6ZDhtBVolD4Ip0/6t7UmSOwFshDheAio9uyo6lndQ3Qcm+VZsXORvIGTSgd3gLqEOzc3BofKfBVtaZxxxhaVyzQb0q8ODPbsSFn/k2GjtyCIaUuYuyrfLf+IN5GzDZp2GgrrEJre0d6FNSJAvPe8KBAL71hauwcsONSDbGYRYVefIml5iIoCOnGcjSZqy70PQgWtIWPvzVH6o2xKOlQTcDMEIRUF53Ajp+dO8fcX9JIUQiMXR05DLYVtcCLRgBbb6eKN8pk/MA56rsxkQIA0g5KI4UwlTBEW+bFIemo70jhVxGedV8NAoGTNz4mY9gzaabEIs1QivMl5gBtZ+VwkW7LC19Qtd1E7GUjY9/5UcA56Nzc+owtTAQjiorCl3sWhYmI+4Y4+Ct498O6p07YhjV425iP+/kH4cnHEwQVQ2WMlAmlcQFZ81CRb4ylpNm8EL5BJDK5XDXo8+iPZmCoRPhVMBLNpVG3z69MO+UUcKWSZ3YHk1c7KeqrAR9+pTjyRcWwjYNQUSZj+Lwf2duNrKJDsyZfArGDq6W68QQ5loY2qcSMyaPw959e7H3QANyKQs2rQOk3LRz0jgvFI3j5zENrmHCoH3XNOGaUbgMjvGCqTmfnbv34M0tNXhr20G8tX0Ptu7eA8sk0lNxFPQUaqhC+mjfZCgkBVkNlkvbagKGlcJPvnY1JgwbINcqSRjYXLMfj7+wDFokDKsjgXmTxmLMkP5iUyZH4Gtg396YMXU8ag4dxL69++Ek0nAcziVA2i1cQywyArccXHoFzCBMPQQ3EAECYWh6QK2X6AieaEfNRMb/zuLRsXDS0PuPu0mh1Dv87k1AsIAIbBhob27CjGnjMH5gf+UF4zXUdMTswsm6ePyFxahtaIMhLlQhzHACIby+dCXGDqvC6MGDZAF5Nc1VSl4FThk2EKGIiUWvrQTC+QiITMaO1WK9fXZcaAoWViaLjlQSHz7vdFEIqU74Yx7SpxeuvPgszJw4EgXFebCsLGJtbcgm0kAqLazfNYLiWSObp+xHu6jENngbSiG4aE8IGGFFTSMB6KEgzEBQNp04OYh+9HbZNhzbhp1KwUmmYedScLJZhAMmZowfgp9/+zO4fMEcWq89MqM2vCDsi69Di0TgpjNoS7bgY+cvEIuIhD8KdG0MquyFj124ALPHj0BJcREyVg6xWBuyHXHYWc7Jlo0nIZkia1P8ceAYFLNIJMQCrL5zEwl8vciutwO5G353C8IqauGtuyhYauRuNoeACVx25hyRnBR15WJSaHcQME3sqW3C68vfhBGluspF0SWEL2dbeH3Faiw4Yw4qiwvEbEbKQWuAkjgczJ0wHvsamvDm6g0wooqKHw9huQwiZQRD2LV7Dyr7VWDqiCEwJExQiRUkqCZ0DK3ug/fNnoIr3z8fZ8+ZjFlTx6M830QoZKKxNY5sRzvsTBKOHgL0kFBfkzGtDnkH//nB11xYsn6VUqM7Biya67IpOO0xuHYOIcNFRUEIMyeNx8QxQ3DW6TNx3VUfxHUfORff/PQVGDtogLBoIiE5DF/sQRD2haVCYc0A57QXlb3LMHXUCFG6aDOh3kDbLR1kQ/v3w7lzpuCqS8/CubMnYNa0iSgqiCJg2mhrbkY6mYGToRfRRJBRajQLCrEXEiH9CvWXXDtf8FDr3J3vmjn7w8cR8v79bv297xMB6YCxKTkHpWYOrz/8a4yq6gf6zw2BgkJYsvo3aw7i9Cu/iliO8Z+MiVXRR9zZmY4Yxo0eiL/e8UMMKC2By/ws8ZuTfXLldMSSKXzgSzdi4aqtMEqLlbxL+VnEB4U8xHAa09krwZ+1siiK2LjjO9fgo/PnycSF2/MbN5w3IfGEdgFLxrKw/VAdlq3ZhMUr1+OVlW+iqSkO5BchGKDIQDsrWS77JU1Udl42l2OQTiKJQH4E4wb3xsxpEzFqYBVmnjIGFfkhVFf26tLTka+kgORW/pjUDDQ8snAprrj2Fui0E1PGztjIN1O444Yv4OPvO0s14KqQb45FbCkedexkKRTLLAs7D9Vj+dpNWLhmA159Yy1a6luB/DKYEjiTlQAe3mNyswlB8gB0ZJjd9s3Qqsd2j0jw9iGT0+oGks2tcDQb58+d7smglAtUtimnTeWnpT2OZUtWAnn5AliLgHVc6EEddXsPY+Pufbj0rHkImmrhKBoI7B0N4WAAZ86bgWdfex2NjW3QgsztYhCLT+qJokRYLjURndp2AKmMg6eefwWxWBxjRw2T+Fq2Ke2KnM37GExOywZbcBDQDVQWF2Lq6KG4bMFcXHzWXJQWRbFz1060NbfAZTavZyrifeyTiqUTi6FfZQE+d/m5+NlXr8K3PnMF3j9nGqaNGoo+pUUootNERASihaeMeXIKA7jbEgkx7zFijVuBr401+8WGrYXpnaIBwUA6Z+Evry5FU7wdo4YORkm+UpZ04SK8qnOCwuHYV0A3ZU5TRg3FB8+cjUvmz0JJSRG276pBvKEZWigkCMu5CAR9hJXf0nW3vhl6dTfJsMcYNkHrBsLYvHU7Tp0zGQMqylSinAjtCinJ5macMhort25Fzc6D0MIRcd9SNKC2rYci2LVtD9JwcPaMiUIlFWtUEGN0QXEkhNEjB+OJZxYhY0tqsKKmXB8ZF+2wyq3rZxZoRgiOFsSKNZvw2MLXsK++HpFISNyvAdpEBXvVp7JxsCH2SdslkUpHWWE+Tpt6Ci5aMAsHGluxdetu6IGAOC54u5PNwM1m8NkPn48HfngdLps/B1W9yhEwTAnSFvzxRsjW1WbhiG0kbAerN2zFXX9eiN8+8EdcfO4ZCElgjQL0JiIsRQIxkXGijlgpKKasWrFB5nS4vh75kQjKelcg5M2JCM8eyNQpYskaCTYSki7KCoskhoFzqm2ow+bNO6EFTOgG7xGJXcmzahjd/q4Zsz7UQ3tDlkDYopOIY/KYaix+8Dbkm6xHxyEouympFynmrsN1OP0T1+NgYzsCeRFYTCB0dAScLBiA5Xa04eff/Byu++jFCkhsgunctJES8LqGRxevxEeu/T6ccAEMnUmIStaiD18Zu3kTXaqkuFQqyL5dOOkEkEgglBfFyCFVmDf1FIwf1AdzZ05D7+JCFImPvcvaSGigkqVJRiXoHMAnb/wV7n/sRRhlxXAtB3o6gdtvuBpfuOx8uZmuYf6nm9V/NcXbcLilHSvXvol0Jos9Te1YsWYt4ukcduxvRK6pHcNHVWHjX+5G0Nt0vPdPC5fgw9f+CHpRqRc7QJmVXIHiEDN8KIKkYOZFMWpwH5w5cwLGD+iLU2dNQVlhHooiUX8I3qcKQOf4vEhGSTv6zPd+hT889jy0kgpBVFoyCEsVx/G2JrrhZw8jrApQoTxpt7Xg6o9fhN9+/fNqf4ttVWmi1JZJ0V5auwFXXHMTWtMu9BATFKmR29C1LHKWi0AmiT/feTPOnzlR4k4l2IXERZCXEirwxVt/g//6w0vQi0qgafSN87iSXkU4kOs1LxPBhWMw+pTLbMC1LLiUNTNMg3FRUl6GPhVlmDFpBCaPHIQFUyZgWP+qI8tiO2DsA8kU4wTq2xM49crrsONAM9xUAl/89Adwx1c/JZuTKSlkwbpmIGXbeOKFV/Ds6+uwdO12xNI2OpqbVB6ZGQRoMdEpuZiws1lMGNwLbzx+F8ISvK66f3jhEnyoK8J6lJNUktkPYq7ipZYtVgRkc4KJJRWl6FMaxdxJozFxxGCcNn0CRlT365xTzuH2VhCjtsY5zb/qemza2wQjxDPM+Qp4m4OA795Xz4oE4j9Xk3LDIaxevhZFZcWYOW6k4n8epSGVpdQ5rG9vVFVX4emXXxGQmQZZuSGGdNOgsgS8tnwVzpw7Gb1LGQ9ARFPs0Gf+MyaNx59fWYbmphboXaLtSRHo1aLy5Yd9s19qeXQb85P5YIGAAZ2molAUqZyLxpYY1q99C88tWYUHnl2IJRu3IhQJY8zAaoCB0ZqKO6XcnB8KAyETzz3/CnoP6I0Hf/BVFEXDkj9FhkqLxPqd+/CRb9yC2+55GJu2H0K7ZSBLJIlGYERDQDQMLRCCGwyBWcFuLofeJXn45AcvQEDgJbvTk2FpJYjIfGQuRKdO+VuZo6g4aoEgdIoOoTBSGQuNbR1Yu2YTnlmyBg89+yKWrduAaCiC4YOrhfrTWkL5hFtZMiMCITy3cCl0JkXKGGjQ635k5VboUYRVvIUUyJGvrhHAGyvfxJTJ4zGkb4VnmxWUg+aoNOfxQwcgbeewdPEyaHmM4CJoFEJRPow1NWPr3n247Lz5CPpOfG8hCei8YBBFRXl46sVF0EL5YkdUgTGkDhpsaroOvWnKo8aEPy4qA8z5opVCFDZSOAOSimKG88WOmrZ17Np+AI89txD7G+pxxqwZINGhdYB+do61vKwU9z/+NC455zR89OxTxaPFGVLsORTrwCXX3IA1a3bAKO0FI0Lk1EQ+VCBbQmMAACAASURBVL2qwBdpj3PifrIs9CqO4LMfPB8mqblnQ/RlWLp5Hfp86SGUEEZH7MUq6NGEzdJOMnNCkUHumkSxGZGohAymbA07dh3GI88txv66RsyfNQXhAO2tamNw3BUVZXj4hcVoT1ticvROSbvd/caQd4UoPfJJLduTVRleGgwinsri49d+D6tr9isqy6RCCcymXKdku5u/eBWu+vDFsFuaAWSVh4mUkBSyqASvLXsTj720RMFKPDDqPglUAfDBc07D5PHD4SQY6keqShupSjzJi7gozjNQGNHFtFUQYZEPqvJEU+ZI+TZTBuJ40RDSBsMDTRj5+dAjJbj/gWfxg988CEi4Iz1xCuFLC/NRFAxg7viRMj6h3vJNwyMvL8XmDbsRKimRmdLyQNev+iScXNm4/E1/rm4zm5VgorLDOXq1vHyWrfyAyA9oKIoGURrSUBTSURAOgMHu0gZ3MX3ajEUWEZoWWm4P9akbJlBUDK2gAA889DhuvOM+WQcitwp8Z+BRGEUR5slwXJTE1br2BC71KMIKonBBSBXoLHA0BKNR1Da24HM3/BSN9CDRRy72VVJSJYfy/Vc3XIPpk0bDaW1RZilq52K0Zth9EP/95F89puQzJ5W3z0WP6Do+dvG5QC4lRnSxwbJARyKOH17zcbx+30+x+J6fYck9v8Tzd9+K6vJCkRWp5ImCJtZaSrye7MvwQn+JOQYSreIiPLVoCRo6Up3oQ4SiGaqqb4UkXBJP2QLZKJFk6RvrgGBYRe4Twaks0tmgfAuqcguzb4W6ioQOpFKYMnYkQlTTvRmzXTHiO1SsWvCT6z+JpffdisX33orX7vkJXrznxxhZVSLODVpiKY9zQylOo/QKemGV4sQMAgsBDqKkHI8ueh2HW+Pix1NbEDADBooLCwRh1b5kyGbPED6FEbLje/7NZ7eh4lKsX7cVn7vxp8jYjN9UeVVqz3NZHBQFDTxwy9cxeGA1cuk0LIOUUiI6RRZbu2MPNu/b701CjDRKcRINHjh33myUVXLRVKKeWAlsF8XRfIwZVI2JQ/tj/JCBmD1iMGaMGQ6k0+JsoM2YSqIDUikiBq0KjmTaitNSSiDp0IImGloT2H2oVvEFTo5qlWMLSy0pLT8KwET5w7WHAVpJZEOI4OFJ4aSf3Co56Zu2YiKUTTHDtHDB/OnSFjN+/e2pkMkALAuRoImxg6swbtggnDJ0EGYOG4gJY0bBTRMuKqNCFD4p26TifDkGGbKnDEpccSCMltYOHKqt8/pTnIsUOseqPUKZe7aIew8jrFrErpRBKVgGjJIyPPmXRbjh9gdEe6UYr/KJuLQ0dVoYOaAKP/vmF2Ey8ZDsUlBDE+25ra0dB2obFWCFiiuzjIizcDCwsgTDB/SGy7hRIjEpiAMsX/2m3JOhSuGRkHPmTgGyKclxNd0sQjbTmPlPxafSkUHNmx4jbhpZbNtCcUkhBvRlPpTwWrWgtovmeLsgrhzw3ji/vrRDU2tnZBlDKXUNls62SWwZ5kf3sXKJ0knstDTjfQtm4+zZ08Q2S++fD0txrjCSyg1i8RtrpBcSPQU94MwZEwAnBc2xxDwoZjx64TgLXYVWWlQvNAbceNTcyqKkIIzKXt5m68RXG/EES6EqBZXr4J3qOsVu+d6jCOuDt+vkFMISULrUwfrV75/A3X95WcV+CqKqq23BPAfvnzcVo0cOAZjbRQYrVIYKiSFRVISSsF1hvWxXVCvSR8yeOlHKAPG8UNhAAFt27kHOzlLyVEoNXFy8YA7OPmMG3IY2WA49Owwnzwq6wmXQNI1rZKE2wo6FoJUB2powb+po9C2gPdOLRQVQ3xLD4YZ2tMRisoBiCZbNBlxw5lwgnYDt7RS2Z4pdmBuBY6QnT0fOdZBrPIwZ00bizu9dj7BuwBHV3UdXiqTcgLbEyO7eux8Zy0vl9jbhB+fPwflnToPdUA9H+vNOeOIOkVSFMXJjmtBsE2htwunTx6GqvFTEU0nZBVDb2oF4Iq0UZ9kyPp3vFhw9qtEeRdiuPVNeov+fCyMiLSmqacIJ5+G67/8aL6/fIEhI9COlUGiooyWZRkc84cmTnpuU51m0wgsAUPvdY3EeFWYLBUxaFGXKY7/RMFZv3IEVG3d6kfkqHYwFNO675Zu48JwZcFvrkW1PI5dmjS0LFjJwrBycrIZMVkcykUKmtQlnzJuMW675tKLeRH4JbgBeWLISzfvr0RSnbKsQjHI1/1127hm4+Ly5cJsOw052wM6yXRdOzgUL5VmZNJzWBiDVgssvPRNP/tePUVVcIAoTFS/Cxadttu0VgDaCeOOt7Vi6eZe3AWkFUTG+d938LVxw3lw48UZYsWZxJjC+w865qt8M8+Y05BIJ5FobcOqpU/HTr1wtMi2VQcWtgGeXrERjXZOEUVIvkY5kdt3/ZuhVPRRL0GUupJnck0f2pfLG8JKAoSGdsbBi7QZcOP9UFOdHRI7zvUE/++8n8NQzSxGMRiSvigZxJ5dDZUkevvLJK1BewCgtogM3gmJWvkS7ZO1beHX5W9Bp4xTfvotc0kJHKoXLzpqj7pGcfAdFeRFcfu48DB1SJf2nUzEw64TadlDj+SCK8kxMnzAU13/2Q7j1619COTNW5R/NVgbiloOv/vhO1DXFEQybuPzseZ2xBcxuixgGLpg/B6XlxWhsqBWTF8caNHWU5gdRXRoVN+8tX/kMvnHVh5DP6jASTG3AdnJdapExgziIRSvWwrZsBEwN9S0t+NDZp0mKjxBfuqyjYVx6zmkYOWyA1HNIJzsQpHvXdRAwXBQyfT0/IJV5WCmGcbfl+VGJIiMHpALZns3hyz/+LRpiSehBWisI7a48s8tCd8NXzZhxudCvbmj7mE2qqRGRaBJR+VaUDRUSK4nLZvB2ayvmTBiCX3/vWkwaMQRt7R2478/P44bb/4CsXgDTYKRQDq5mwo6147wzp+CZ23/gBVV7W4GZu1RWNF2M7D+892HceMvdQB7ZtknMgGaGYHY04/6fXo+PnLsA4i7lVnKBQJd1qE8m0RrrQGtLXMxNxSUFKC0qQEV+nniCOFmpYE9JV+7T8OVf/A633/MU9IIoom4CL//hdswYNQyOm5PyRQxBVNfqSFoWDrXEUNfUIm5lVmqpKMhDYfhvSxj96uHHMHXYIMyZPEWZvkSc0bG3qQXJWAKv76zB5z7/Ndx7x834pERquSKfi6IlZFIx1qZUCk1tHWhpbZPNUlJUhLKSAlTS3u29bJrTRFGjVQK4/lf34Rd3PAQU5ot1JkiuKJu0Z5h196TI+LN926ePrJygoKirBH6ycoaqUengfjWo5BTl4/VNu3DGp7+GyWNHoq62WeRNLZInSXCSf+sqFg83i09cct6Rfc5FIcaJ2quECQ6lsbUDkbwQJk2dANvOYd/hw6htSSAXiOBLP/gtogUluHjOFBk1U1ZkJ4sMrEm2KzNe0eftYX/cFLRDUgdRsbts4Ef3PIbbH3gSKGLEmYGOmI4bf3EfnrrrR4iaAUi8rFgRiLQ2oqaJYb3K5K8r2KiLG8xjkwwM4Bf/8wSu/+YtePyB2+UyFQBPKcHFQGb/lpdiR12duHO//P3bUVJYhIvnTZdnRDiOF+SofBAoj0TkD30qunSp6Jcva+vMYVO7Crfc9zBuv/9RzJg3Fabm4GBdEw7Vx+GEmOLDAtVdmummr4ZRNeYdT5Eh2h3rTxFVCXAVWyODg6mtU9inbTSnM1yaZTWUN18L0h1qYM/uWjS2p6HnFUAqbhMyxEnKt23NuODsmfje5z4qm4AmqCOysdr1rJZCxeU7v7ob48ePwYxJp6BvaQGGDRmArVt2ImuGkc5oeObFhcjLD2HK+NFiJPftpQJ7Ufx9yn1EaiMFZ9gk2SWvP9DUiut/8Tv8/O5HoOUx6IZaviGxELt21GDb/oM4c+Yk5IVDyq0pgCLH4Wp7f0o4FShyBgymqW2L4du/vg83/+ZPAKKo6t8LZ89kYiaFEFU5m6oe6eDOvQfwp+cXI4sQ/vLiq4gU5mPi2FEI6BRV2KJnYZFNrXpVHkTOVIlqYgGRzGYNh1ra8O1f/g4/ue0eLFhwKkYO7IshVb3Qv29v1OyrRSLL3C5lpT7Wur+Txwy9akyPxMNS8C/Mj4rslM1kEKCfkzVPuNtZ9kYM4fzO6fGcMCKY4hHTlHFegMnIIJ5zYSdi6Fddiod++j1UFhWICYfEVQVzEwUUAhCRNuzZh18/+JjEuubSKTQ1tYqSd7CuAYlkDnpAFet4YeHreHXVSgRDBsrKylAUpW/eyx/jWD3q5BMQts2Qmrd21eDux57GNT+6C68ufQsoyhNZlyNVlRizEh+7ZcsuPLd4GQoKoujbrxJ5rKDy9u0tbJtwAPbXN0g9gS/c/Gu88MpK6HnF0IMRbNm5FdOnT5QkTJmzBzXes2J7DZ56fplEuWUcFy+9shovr1qHaFBDZWkx8skp+JLJeHPrJDIKvRjivbFmL37/+DO45pY78dJr6xAoKcb8Wadg7dq3EMzLQ0NTGxwzgMbaOuhMJTnC41T73fCumdM/0AOEXBRbRAMOLjpnFp5+bjnak2kYERqbAl6qMJ/wwqF4Jm3Pzklzi6IBNGGxLr8psaxuaxMqy8J45K5bceq40Z48TIS3oTmk3EwMJKWmxVPDDXc+hB//9Lc477KLJJq/uaERwbwIHn/mVVhaUHL+KY3ZTHHm45bcHAZW98PYwf0wafQoTBk/QmQLWWPPvdwYS2Lh0mXY09iKtZu3IxvLAKE8BEMhkev4nACWYmIqjC6xBapsvdWRA+w0Ro7oi2lD+2PB6aeipDAq9meZrevirR17sGLdeqzfVoPaA/WSp6bnhRFgzpUWRDabRnG+iU9d+j6cMXkMApqLLAwsWrYSjy5ahUPNGRimMsdRXMglaAa0MKRvOUYP7Y8J48dh0tgR4t0ixxe7tgY0xBNYtGQFDjbGsG7jNiTaEtCjBRK4DTsl1WwqyksQjhRKzMMjTy1CmmKDBNl0A4a+rckeQ1giopVoxRUXn4ZLz1qAL3znVjTVt0l8JssF5VhDleF2jkc9O/2TXGx6U7j4DiyWOo+3Y/Lk0bj7u/8Pk0cP9xCalEEpcnDIImnWYiiiiUNtcUz/wNU41NSKcCSA6r69xR9fX9+I9jQjvAGT5i62z3EQuVwLtpVW9WZF/qAM4pNX+uVV0LZ8Gga0aB4MslAPwPSMScAIo7c88x2rLwocKI8S6Vnlm2F+Yk9WYo7MoXORdCCcpyptCyen+ESTHB+aocFmKncyLYgoMpaktttyjx6KypzYnsO6sbQ0OwZslr5PpZQLnBYH2m45aH9u3JGSFGpAz4tA88xz3PQU13Q3jf79qqHrJuqbmiXD2TVYV8EnLJ2D75YvWmBaz1BYjp7FH7R0Gx79/U8wZdhQfONnv8VfFq1EMpYUjR2RPOhebCWRjQHZNNQzyIJJfvQKFRRH8LlLz8K3v/QplEQikPLzknKt2L9UnaH/RnQuZX34wg9uw13//RyM0lJodhoWa/trQYmYMpgW7okOlImJPCJM0INFoi7nKIeq+rPSiwTYeLKeLLBi6txQIh1KUqXCA/+dc2Ebcr8UHmZ7RGpyFN7F/cYNRi7BuzgW4pGEvsgvHrdZwIvSu3jA2IaKd2XZTlfjM8osoZqUawUPhWNxfER09sRPClSqHV7DamPM9xXRWebAfaUQlH1xjNQxqGtkGQeRTqt9FTQ9z7Iyb8mAu/lNC0y7jCPvkReBZKWTGNS7GEsfuRP9iguxdutOPPHy61i2/k1s3nkA8Y6U1H/lfqXnhxaE/GgYo0cMxLypE3HFuadi/NBBsmj07tBjxUgiWXBBNbVMhD5th08sWo7LvvQdgMXPiFzyIuKo6wSFJFHQQxRCg5jB853Kj0Jp3uq3cARo3hFuEIVjns+APfjt0MEh2Kc2g4fYpOSk6jzXpSuvF/+gakcROgZLK2JIhFW2FvahqJtSvhhjocbp9S6Dl/4FNf2jHB3/cWDeSLkpOx+VpDaDnOXg1Mi9egxcF9rO2a+CigcF73f3fWjm1J5DWO5wrmaurQ2njB2Ev97zS1QXF8rsqLjs2HsAHcmkBBV3dKQQjYSRHwkgEgpj1NABnfX4KYsJ+fOo0BF0UrIyRWFT17By03Zc+oVv4VC7JSUv1VMQmXFPMkYq3FNg7r4FfK+1rBnTLuX26ZGX2vmUvwA71oKpk0bhkV/9AIMkuMLf+ccbihdzSXQTSumRM7lctoLQAEUrdCxcuxkf/8oNONySgpFfCl0Cwvm8Ad5HFtlj0z7ehE4e/zcgoBnTLu6xlZO4TtokWS6YiXFtcYwYWo07v38dTp88TobfabD3kIpaPwfIQBDaEBUXUjyP8h2pq5L3jlDLO/70JL5z232IJR3JUuBTVYjSKlSQRJ6R/GStR4JUjoadMMKjD3X+Un36PxkXwJfaRP5R9Xn0uX++zaNbOfmrKwQMvd+oHrHDslOlgCphjyYsMxxBfUMMjzy3CG2JDgwf3B8l+UxjoSzlacPiXCCyKsWG7SiWrhCUcqpgP4B123bh6h/+Gr+673FktCCMSEQehszaADYfqyQFLRjT6lFnQXgfHArxFPX1BEXvlFJQpGPPlapGQVyNRiNSQNivgChnqMlrGqJ5UUkhkcAUT/rlqBUiK8RXTiS/765jUfPzj5z8VBDQjKk9R2EV46YEGpQIeUMcBzqsnAMk2tGrqgIfvuBMXHH2aZgwYiBCTNf4B69kKokVG7bhD0+9iCdeXo6OeApaUXGntm26dE7YYq6igibmKy/S1iPXR/fg446PL4wpCAZgmgFksxllVpOd5yIQCKKQkffQ0NHRgXQ6LTlSDP2LRCLIy8sTHz2LcxBplSDiwjRNBIO0pWZh00zXqQwePZSTv/4WApox5RJ/if727Dt8hAtGMwwJHD0p5Msqgl+St2Fl00AygXBBFBPHDMX4oVWYOHY0Rg0bIKVQFffVkEg7WP3WZmzfcwAbt23H5l37YKVsKRFkmvSEMYSFD+/gI5RI7RgWyAowOgIukw2pbdPsc/TUfRYuVK/TEK6hsLAQgYCJZCqFjo6kWB8IGlL3PFJRTUdHokPC+ET4cB15Hlg0GpW6qkk+rE7xBemxsKAQwVBQEJyIzpc/Eo7hWOLFO7wUJ2xzPYqwhJIiXMq2J78l9ds/o8wsLJDmPyCOD8DS+Ne5pN7DiJkZSnMAU7fDTIGmrVQtu7Iyend4cq5nVBXaSoQVeVpGIygm94aCptT7yrGeUBcWXpAXQSAYREcqgVRaPQJPcrqkNhjHRpM6RRhNwvtIMRlDwHrDLL4mZ2RsNG/ZyI9GxPKRSmfkiYqEiW+jDQYD8igk2orlPp/SHwvF3oNWjh5H2GPB/XjHiH4eDnpyn7qSHFTk3OPd2HmcyploV50IqE6RiqnjpMREvpBpoKgwX+hgPJ6QKtaSRiNGehWJxQAaqYLNAB1mcdN7Z7EtVpKhMd9BSRFlcB3Nra3iaiXysmgdA9Yl6Y/ILOGOBhybfSt7Jm3K4UgeCiIq/rS9I46cVNv4exjbOdH3zJd/LCT+H4JCKI+/Xv+WnOcrT9KSx3j59EKFpszJFy8PcZdPRBQE0QWRhKDTiO5Y4n2lV94wgrAdJvkZUlyNEVrb9+xBO9NFoIuDY9SQISKSbtlho6m1XbhDyNAwsKqP2I73Ha5DJucg581H6rHqKsaAAULCI2SnKtsHtwgFBm7cfwsE/4fr1x1dv6sR9p2ZsKx+Z1MUG1glm1SQj3oXrsrwQ9tCLN4h+VoMBCGesJjHgN69pQrKvoO1SPN62IiGQlIJkGJFOGSinc+WpSvUceDkVBE11tJi0hM3Qn5+FP0qeousG4+ncLiZkWLkHjbyC8Kwcll5iJyVzSJuxcQERze25J0pdIUuT03kzvIwV1iPv5s7p/cf/+U/HGE9kcAXCByych0FBawgoyPekYRDlu4tc44ZtcQk1ut3ciiORjGoTz+EgiEkEinsb2iUyn2xZBo79x+UNlriCck9sy1HUm3e2rYdmqEhyaAUJbsglkrjcEurICyfp0ARwrUtlBUVYOSQQcikc9i8YycyrL4tweAKKcWc5tqi8OXn54uFgkqaxDUwBuE9iLT/4QhLkUBho2KsjATTJd+KWCrBzBIp7yJkmigsLUFHIiGPYTdZXzWbRXMsjnAwhHhHu+Cfa+WQsx2Q4rKuLMUCPsSjpDyKltYYOtKMhCJYXZQW5SGdzSCZzGLrnn0SY8ANohsq65XtRg3W39IloY/BPeyEpZPEWqAr+zPLcXI8fEK5VAgnokrmLdXL99bL0PqM7DHHQc+DlmhKLZ6fio7SRsqM1Fw2C0usASpKalB1FYYM6C/I2dLcKtdnLQcNra1oYAn1bE5su0Oq+6FvZS/EOtolNUbPZXHajKmYPfUUqbp94EAdH+CNoQOrce5ps1BVUYF9B2phWao8Ul5UWRyYgZvOZNCeSKG+sRHtjMGlCOE6qCgvRXW/vuDDSLI5SyoLsQYY7bYWkdqbz9HCzhHoqs155Pd/0jeTBpkT/sWVkzA9hZTKj8V5iTlBHjFP9srQQ/5lclkpbKEZAQlnZCasm0vDtTKdSExDf8AMCNtlWjetCgUF+Zg1dSLyWR9W07Fpy3YpGhcM6DANEwGxHMjjtlFSVIBIKAA7P18qdaesFEpL83Hq7OnymKTXlq1AY3MbalkvTNpnETg+gcZAdZ8+KCnMExl7x+49EqhDpwQFbj/FRQyAXTx1SkU7gsIKEif8yv7NBP4jRIJjUhTXRSgUFI+TlcsgkWQhOEWbWKozkhdFkk+CETupjpraBjS0J5BKppCzc4hEAjh99nRhxUuWr0ZbPAE76yIeb4drZRGPtUhYH03By9a9hZrDddi//yDLI4gYsm3LLripDJrb42iXvk0URIvQu6RYZOT8cBiNstFcFBYXIMBS8G30iOnyVBdTy6GtjX2wODNDZW2pQshnf4mpDhryolFB8EQiKfKtKqTsQ4ON/+e9NHNyz7lmuwd8PlU5mqaQtUYjUeTxuVV2FvGODlVsz3YwdGB/9O1dgdraOrBKCsywYrWs4BJUVfn69e6FS84+XRDm5dfXYtvOvUJlo2EdgVAQsXg7AqaOwvx8tMRYioi7wURlZSkK8yI4sKcO6RzHlmOwv2QxsM7d8EF9Renava9e2H15cQhnncHnNYTw2vLV2HOwFiZlVT4/kZkPRhCwLYSCBqLhEOLtHZKiaZhBFBcViJjS3p6Qat0qrqJ7oPxuadXQ+/Zc8EtPTpqOBabTUJOmrGhRA2e0lwv0q+wj7D2ZSYmBn7bQfpWlqK7uh3QiCdtykUtT8QHqGpuxY+9eobqF0QAcO4d2PuXaCGH+vFn4wLlniNK1e/dekT0/e8X7MX/6KahvacOhg3Wo7FuJKy48B1W9S7Bn337UN8fQVN8Em8XUdKCgKIpxw4YgZBio2X8Ire1JScyUZ2bxoUss4KwDo4cNQ/+qvrD5XC1Sed7sMmUoh0wmq1iHJ6f3JJx7uq//CJFAAU3VU/V98aQ2/J5iFULbEtmVDyCmrFuzfz9aYi1ojLUKFSsIG1gwYwpKS4qxfH0+3lj3JlgKbjmLqrG6oOliUL9KfPiiC+U5r3948nm0tCUxuLo/qip7obpvP7gszSkhkCEYWgguy3dbCYwe0h9zx41CPNkfm7bsxp59tRgyaIAoZas3bEFDYzteWrJaymfuO1Av1Lcgz8SYU0ahsbEVew7WQzMNcT3T/WxyDuLO1pCmSEMdxEvH9uGgPo/mOD2NWN3VH83X3dX2O9ju8cfYeYYOARW1IlW16RBgvCzjaQsLqMAAyVRGaggkUmm0tzaxLhK0QERqZjW1xmEGw2iJt4uMGImY6D94JOobGtDa1IDS4lJU9emLbDaBXmVFaK5rwHPPP4vDB8fizW37xBrRdGA/fv/okygrLcKmHVsZx4htNTVYs3U7GltacLipVWoEXH7+fAyrrkZeuAB/fm4R9u2tVbETrEjj5jB+1BhMGz8SdXXNONzYilQmg+01uyQDo62tDVJ0WKGqKH/kJlJzl2spwT4EPRXO4y3BcU8c74Z3zXFD6zPsJoW0XPp369/x4UXEJNtnSkxhQQHC4bCE8inzj42iwgKMHj4cvUpKEWuLIZtl8IqDqqq+KMiLit2VJYb21TZh596DOFRfJ1r7uafNxUcuPAd9epXira3bUN8WRzKdxYat27Fh6w44ho5sOolNm3cg1p7C0MF9MWfqeOzauxcHdu9BWXEJJowbhz0HDmH5urewefNW2KkM3ICOEYP6Ipqfj3Vbd2L/3t3oVVmOiZPGixuYylwobKKivBz7axvlfiYBZtMpJBjZ5XEJzjkkc1VVZ5jXxeCdgrw8CXHMMdHyuC+VA/buXe/j46GhE2Ep2ImJpMuF/rGunz5CH+sYz3U97n/373n7ef+4f13XT/+cf4+QCp8qdBmjhI6QitLdaiAaCkuqdTabEZ8/uWV+XgFYp4olklkgjdUG+/crx9mnz8XA6gGob6iTVGUGYPM5WowdIDkePXQYhg6qxqG6BmzcvgOZ9g7U1OzB/j0H4Zo6Pn3FBfj8VVcilsjiwMHd+P51X8QH33cuwpEwVq5dj2s//1l8/oqLYOoW1qzZgP5DhmLu7CloqK/Fuk1bsXrTFnk4Mo22Hzj/LFx8+ix5JtjqjVvkaYo1ew9iz4H9yrKh6SguKZZna9EbxxyMfpW9MHroAFHEWltbREyIhIOIhFhjAchmVZUwhbNHw0wQ9e/B2z/XdR3878c65x/jp39d18/jnfePd73W/36sc1L2VIT3Y2xF9n281/HOHe+4386xzh/rmH89P//mPBH36IM8wkBoWgLo089kbbi6Cc1w0NLaii27yCktxFNJZidKarjm5kRckLqquTQmTRyHBTOn4o03N2PpG6vx8vIV2LH/IPYdRqKwDAAABedJREFUPIhU0sI5Z8zDmXNn4umXl2DFmlWYPm4sThlcjZmTx+H11xejvr4V7YMyqG9sVmarvLBUk2PNBSOo4/NXXoIzpo7Fw30rcNtd/4NU0oEZVM+arWtrRTyTRl1DgxRtY4xBnNFeBgtUAIMH98G8WVORiHfghcXLEG9vR15+GJFwSILEKRIwyiGTyYiTRNmZKdv6m5yfPtwIOz8oqCugve9Hg/ZvLzjW+WMd63rn8c4f7zjvlXP++I+MzVRlgbq2/m78ztF3nd2RtBiSIFkuTQPjWImYZJcSK6sqHqGhJQYp8MqEsEBInqnw7MLFcLMO6tuS0IwIJo0cgfGDB8BydKxY+xY62tqwj09i4QMsbBfz587E/OkTEQqEsHz5CvzpqZewr7YFj/zlRdr98cu7H8BTCxdjy45dcJI5/OZ39+PZxQOxYdsOqW6TiMfFq9XY0oFwNB9f/NSH0bd3Ge78nyfw8quvY/OO7WhqiQuFnzP1FEwcMw6Ll6/Exk1bEQ0FkBfQ4dLuGgjIhjh48BBy6Sxa4nHYjD4ziPy2ZB1LbYZOZO26nj7ieilCXU+dIN8NrXL4TcJ3PP/0u/W7ZCp0BSrxV4z0qjQEDZKMLmUtg14VpSgtKUI6xerWapEGVFViyIC+aG9vR87WEG9LSLkkmCFWKkaCz03IWXhj/QYc2n8Q06dOxA+u+wLGjxiKlevXCyKYwRCeeWGRmJ/2bNuJJa+vQWsig8GDqyR8oGbLDvTr3x/Tp07Glpo92Lt1O3JGAE7awqatO7BoxXosWbUBA/r3wbWfuARDBlVj+/46bFu9VkqwW6wCY+q4/JwFGD9iOLRwCGs3bkdbPI7WWBw7dh1AI59hC5rdLLTGYlJpm1VYyGH4PAXx5vkFQJndQfswX/6e7/z0Ir/e5ev+dnw0jD7DbpK6SNSo37V/ogwL3Mn++CICh4IBRPhcKiGofDqNjTw+Z3b4UPQuK5bglVhrO4qLinD2vBkYM2wQOpJpHD7QgMLSYlx24QJMGDkY+2prcai2EevXb0TdoUNSl2Lu3Fk4b940hMMRLF61DhvXb8bLry4XW+qAYdX4+Ec+gI5MGlV9SvFfN30d86ZPRc3hWnzzC1fhU5ddiAN1dQgX5OHWb30VxXlRrFi1Hq0tbSLndyTakHMs7KtvwzNPP4fhIwfja1d/BgX5Bdi+ZYt4r4KRfCxeuQYNDc2wc1k0NTQjlrJF52I8blFxCbI5VSmG5T7DoSAYp6CUTZWhQUcFo9OEC3mPROW2lgTPd+1a/308NCWETVDg3f1Gbi6xq14hNtYsjUbDUkGaGy3GIGrNRS6XQyKRgGOFQA8Q7bHpFIsRxxGJhtDWngRyWQzq2wtzxo+Wh1Rs3LgF6w83Ye7smThnwVz8ddEreOb55xlEhcP1TTh8sBa9B/TD8MFDsPbNNfjope/DJy96HyaMHIpHn/oLSgrzpX4rN4vLYsV8/qqVwYXzT8MZUyciEjCx+s038amPXoGG5gbcft8f8ccHnwBCET4xGVd/+kOYN30CysvK8Pyri7HkjdVYunaz2JGLC4swafwI1DU0YsuuQyKWnjp7Bvr2rcLKtRuwccNGhCMRjBo+ROTZmr37RFGk1SQ/L08yeumCTrGelsixJLYe1X13L/kxR2d21tc55ul3y0Gfj6nxSHkf14VlsWynBsfOyLNd6cnK2g4279glYXhZKytlzdO5LF5eskyyX9uTWRh5EdH4Fy5bJY/v3L3vgDyB8KzTZuD0qaNRVGzg2rfexIMPPwlI4TYd1338Ulx63lm495GnsXfDVrTOOw279x7GoqXr8DXrN4hn0/JA4217D6J3WQm27arB3r2HEYaBZ5cuxqgxwzF/5iloa23Dsy8sQZ/ZZ6CtI45VK5fh0aeflQLBr61ag1Qmh36DhqO9NYZ4rBFTJ47ERWfPQV19M2of/LMojuGwgaCbRgnjepkzIcmcgME0HUFGmrpISfnHMEqyf4YuerK/n+b+blne442jsxTSkQv+P7/dNM+Yf1BUAAAAAElFTkSuQmCC;" parent="tzZtZtUzTntlYtjN_Du5-2" vertex="1">
          <mxGeometry x="0.6900000000000546" y="24" width="50" height="26.17" as="geometry" />
        </mxCell>
        <mxCell id="MaFsSqHFL_aDIbuKhQJ8-16" value="" style="shape=image;imageAspect=0;aspect=fixed;verticalLabelPosition=bottom;verticalAlign=top;labelBackgroundColor=#ffffff;image=data:image/png,iVBORw0KGgoAAAANSUhEUgAAAF4AAABQCAYAAACQ2MIeAAAJsElEQVR4Xu2ceYwURRSHf927s7vjzJ6woCCSGBKPBCHgBQYMRpCIBxABD0CUQ+KFEgkGWUMEiQSD4pEgSDzAkwioYPBAokbRoAmERAQJEVYUhL1mZ9ljdmfMq57qqenpma6ec5nt+mcz29V1fPXqvVevqlrx7a0OwUlZJ6A0/djHAZ917IDiSHwOqANwJD433B3wOeLugHfA54pAjup1dLwDPkcEclStI/G5Bq8EFdaEkBq7njJ7Rv+jvPxvoZqjHmS52s6gVmEqvNj7qaxcFTUEj0tFWyCE0/XhFmUZRLar61ulosSlsD7zQUimDUmBJ+mmyvcdCmDDtlZs3NoBtYdIfDAIzJ5chLmT3LjmChf87clFXBj4RNPGOJoEvatTwfwVPnz4dQeoIT0xkaDdPbYI65aWoaAwvvRzVczVE1fltiSeoJNKGTqlEf62UBT0niTxXNCoz94SBfu3VIBUkB3Vo/h+6BsSjaQ4QmZGZPjdDThaG2SqhaSd/j5xTwnGXV+M4pL8lv32NuCrn9vx8gdtet+JwaABKn77sDLG6HJNwp0WUbNIS7y3WMFzb7Zg+fpWVgFVeMOQQmxaWYqBfQuYsekJiWzb8dNdmLGkGT8e6NRtW808N56d45HW+TE63kziSYd1dSioGHNWVy80ygc+1kaZdL7RFY0a3bDryQcmmWdm0qPry7ArLEqW8Zn42+w9O+3nrvOQqdrsp0Qzv3FPbxQUhRgPUYuY9ptUjZWkEvhP93Rg+tJmfYr99E45Bg8q1KFblZFvz4nJwaOdGHl/k85k84pS3DmmSIoJ0/FWUDxuYNFLfqx5r41lJWk/vK0KLZrW6bGJuFw2qV6X+oX3lWD1k14pLtLgJzzWhF17Awwy+bHrl5RJVZDPo0Lg5630sXUMpfEjXNj5arkUF2nwo2c3MmNCiY3sglK0JLl4yJfB8BQrWLS2WdcE5Gx8v7HCAW81wKSnSwq0JXcyQuSAtyJs8pw7DIdPdMLrUjHq2kIWArBjtxzwdsEHgWHT63HsZHS8g/visvBzA17Settlkun8BGtGTROLM4mJr8K/WFuOUVfLucm5AX++Gtcg9IWgMb5E8CeOceGT1XKeiQNecpqQXv/r7yAGT2swfYPAX3qxij+3y61RHPCS4Clb7amuhODtLA4d8JLgZSTeAS8J0242KYn/pJeUX+9IvA36UuAl41A0g2pea3FWrlb8HVVjRSiDz6UkPhVVs6FSSk3JBcmKFYye25D1IBmPpRw/04ne3gJ43IpUpxKNmwPeQqrJcH39SwceXtWMv/7RlvZ33OjCmqe86F1WkPSckAIvqeNNjau0xH8nsxESR+JbhT0UCvIZj3qY/Y8js3j20/4Abl2g7e4Yk29PNVAYiq3PajhUST+eVA31zaKNccGLXIxtCpep+NIF3qrTNp7TvqVnRB17w+zYCAtmPUg7PZabZzG11v4nsYDi4K1mpdskHk8SL9Gu7gdeQiqHXV6Afe/Sst4meImy2QKqR4KnZX0apTJKaPMSfAr6PMo2pApHPMNpYnOkjKtR4uP0jbysmK0/UdUkYNIt3UlpOIY9XzJ25Hq2ngMG9DF3P5Mt20zddw+vxobxTJg1GYlXgbO+Lix80Y/PvtNOQlBa9YgHC2dcELEFyZSdoLGWEp/g3fPSuEYZwPB0vvyuOpyqiz1IG+UBOeATiIJdOCqw5cs2zF3pjymUb+cd/bySrXzJL5dWNRIeU35JvE2vhjo/74WmhJcjaB915FUuNjDp9JhSA7/nwogzzO8/8UOg9DuowOOBHqvhx7LZgaaWsJCF8+kiJ/62+8wmHOr8nOU+vPV5e9xbKUmBj9c3YV4RF1Ovht616HfudHwCV8uOVGYMfL6pGgL1x/FO/NcYxMB+KgZWF8asQB3w4WlFsEzDwhJSIVq8+oYQJj/diP1HuvR/022SZfO9kYCXTQMoLfFDXawOO4Nq5SGnpuOzFSQLKigbcyZiBgxXeZjNCA+kHTjS4Ludcc0GeAmX79jWXqiq1G6W9Azw3KsRb3STVyN4OKJXQ2D0Y9rceotzUvSIBFUl7XkEFdSe7bQ++0LxlBYwj0u6bDuDauybgQnxiatq4r0rlKH4CLzR9RFBhiuIq+OF+0dR5QhlZhJOxsomtWfRt7jupPhuHNdaA28V8PeAHfR8/0vh5sPaiogfL/G+tFR2J4mX6NeEBY36TZl7bynCpuXlUlwiEm9WSXhq0JRas+kcFr/eol+0aviqGorLZMy4lNDWHFc1xXKrSzqlS8nqfKN42osihDKDyk8AS4UMxD1XY2hZUBehgILKcWd0JhSUe2iq23xLUlRV9BEJma0/gvH7iUDUDbdF091Y+Wic7TdaHLkiLfZeoGDusuaEy/rdb5Rj+GBtE7v2VBCDJzeayhu/0HtkZyX850LIZNmsAQFyv2KbQsK45DU/Vm9ujboJeeUlWmjCKkmpGirEaGApdLBhiRez7nBrbqCoD0na8wl8+B4vgxm2eW9/1soCc3wznt1/ok0QHmqwIB8N3uRbNTpQNaS7ebwy/iGFx6e7ETXSeSzxNPNf2dwa9QEN4nDwo0q2+SLyimEveHzSEs+l/qNv2vSLxrxg/l2DftUK/C3AlPEubFhWylQBpUyqg2yUvWVXAF4P8M+ZkP4NB7HvdLF42s0l0tJO79oCb4RPv3nMWzz/Qvdg8wk8v8fKNI2w4qbfyUBPCjzXcxR3Wf5uM97aHn2XiJ7fP6EYG5/35oXEz37Gj3d2tsdojQcmFqFmZqm22hbtm5VVDT+3LfFiuWRw/T5g76EOnDzdhfomTbX0v0jFbTdFrHs21EGir0Ql6zFRX3Z8G8DJfzW3pqpcQf++BRhxRRG8ZbClWozjkRL4uIOboldzti6EQbfHv6dEB5p+/bgiKXfSTtmsf+ROcq8m0QpfUtJ5tsyApwYWCc6vAmzf3YFZNRb7olVakAwKUHZ9vabVTL51pt9HDQRZ3oyVTQ3oIKUebpdNuImyZwZ8nBqHzaxjl3pFQ0xg2YrvLlrxRTq4Y2+s98QHgkUyy6NHJJNlp5G3XlRWwYe6gCfW+nRjRQOwcakXU8aWxEgV2Q9yXeev8LPvn1Ead50L6xaXxUCnZ5ks+7wHTx3gBrnBH9QAWulNNQTyoCgN6KcmNGiZLDvd8LMq8TGNJzOQqe9VZrLsNIyC4tttHRZOQz1OEQYCuZX4HjwcDvgcDX4EfLI6MdF72X6WI4i2qg0zcSTeFrX0ZXaMa/pY2irJAW8LV/oyO+DTx9JWSQ54W7jSl1lp+sZZQKUPp3xJjsTLs0przv8B0ArnzthYUrYAAAAASUVORK5CYII=;" parent="tzZtZtUzTntlYtjN_Du5-2" vertex="1">
          <mxGeometry width="28" height="23.85" as="geometry" />
        </mxCell>
        <mxCell id="tzZtZtUzTntlYtjN_Du5-1" value="" style="shape=image;imageAspect=0;aspect=fixed;verticalLabelPosition=bottom;verticalAlign=top;fontSize=9;image=data:image/png,iVBORw0KGgoAAAANSUhEUgAAAIYAAACGCAMAAAAvpwKjAAAA3lBMVEX////+/v77+/v9/f38/Pxbh5tcZpIfRX7odi3HIDfrkSlTgpdxmabldS3pfDgQPXr31bUANXblr7HUYm/ncB32zLjvpYGvtcdLV4lWYY9hd57qiw/yu4X87ueSmLTpvcG8y9PEACP43MOGpLLf4elaipn769uorcPU1uD31sbGES6Zn7hrdJvnawbZ4ua+xdOVsrvL2N3pgUPxtHj1zahqkaPwr47bgovr7/GqwMjtnUvuolf0xprwrmz649g1RH7tmGnx1dd9jqoALXLOTFp3hKY1VYfCABjCAAUAIm4S7CgNAAAL7ElEQVR4nKVcDVsbRw6e2VmMk5ijR4HgSwKmmJQQB+zrkTh3vbYJENr//4e686WRNNJ6IXqe7IPHy+y7eiXNq9klxlCz9LDpmyGn86+0b1w4+CHr8iF9hoMRv3Hs1+np1TflM79aZ63/oW39l/5gmzLo8qALg41lg9afbvvnQIO2niMOdv+cH2rgWulkGGwb+g2aO6Iw+fRWmoOhkOcAh9AZbJkBfdPyGeLpq9nssxUuyHzh0MQu/zryp3YfxUEO3bErDkozLG8mE9vrCzhd9Bqg+A5GusNy4mHoKFo0qM3xvYyYBMOJIcAZUSPc4kxAKBgjiFN+H9bDeAQjztSM+PS138NI52cPw/WiwIyAky2eI9KyiZEKBb5gjA3CCJ+jn5HG9aDAXKlZ5r+JMHS8mxhpKxScEctqZ8WIyyFq+6sWZoShyL6wPd7cyEiCwdkeniNhjhCe/YxUiwubFkJUXFxERqq1yEUkPbWzjR4TGMnmYZh0O+RMQ87UGXFtoqWnar35j7c3fO71ZHLmrTt2KCbxJ//zFffF1czb2qmMaCgwI+btK28/8RnWE9nOr3iOzF54mxmNkRjHKiMpvt8+76yDwWZQYawMY2T2Ymtr68WqlxEvimJ4aTmSYdC52/Xnbnn/HPztWQk/+c+fr1gYFRhitkcnQ4iqOVJgCHWPhKiBEMX+BBg6Izk4FH0RZgQYHAV4LRVzbR3JMFRG4tXItFXVAm/oC1eEoVatEhsKI9kXLUVhSdWCEJV80WZSnF61CgyFkaw3xBzJ1S3BsAojXZCHYi5VrVi6AAZmhEWhi8mSVjNpHSkhqkiJHBuKBqchKjJCZaCo+CzAUJfPBENbRyBENUYESVxpcMgUjqKs7Iokzg5KMKzKCPVFQ+aGuMUhKidlDFFp4WppiIqZCpLYsrmpBkchKgsaJIlRpoI/WYiSuAC8oDnUrggVc9EXrV2en9/okhhg9DDSZlpUDY5gaGWyaZo1cRCdA4eozEheGjgjyCzyRhmEC8agp1KCGaqiyBAjRJgDIz/9QOxXD+P5azr4Q58GX8265nq2SofVMsBYrvDgbFUWVCKJi4/++4pagMHGXvHEQTlitl5Q2/LGxygjIZspU/97PsBKFahyxGwNsBsazLRTCZ8GwTB1yELtHAaDpxT1RctJSdeFj4mUnj51S+CEs3LDWTU8U399TeyXgOL/dPC1oNeApjNqk4BiwkZNhcKwPpVanbAhJ3v6VDaBnLBsgUqSWO9TZUm8qU8tpazAEKtWSyWxUAXiIJLET+pTi97goOnVjOnrU5EkRige06dmGFJ7QFD07RzYzZIYzyEs90QS9/lCZ6RxpGuTGPntMNhvRvMnksQqIyFEdV8gSQwoGN53H/Y7+3AgM4Jh8NUMoXAk/4QdpU2SuIMxHo93PAx554BLYiegABmoMFJJ4qrXtR7Gjoeh+ROHqCLuBRTMcZZIYs5Id+hg7IzHHQyJEX86qK/vQLFZEr/70KEYh9iQdw5EScxR2CSe1G3eqmtjtTPERoQh3okoidnVoGvTfEFCVOxTS4jKOwdMEpdVq+oycY5EQ0vfBklsAQbfdc0avJbE84uLi+s1K8pkbrPupOIa3XYp5hIjNobojidFYtXRri3RdHx0dPT7nIImLrZmdR4288oF8xactnPQhehODtHCiC0FNW7BrYqTzfF0NDqaE19YkMTx5laTCAP61De/eHsrx3EIUcgUcefArM6Wy+XZFWI1weiTxAkGX7hKg8mTEoeorRghi1+eI8FgwUy8GUmpQkBUfOGXoYoqO0r0WmGOCMOWiSsUGYYQbnJlKSEqMSLOAbGBb4+eDLEhblXUgyhENUbq5rqEKEZB1sMMY+Pz1OxnHqIyI4RVCFEqifHJCcbwZ0UlRFGtV5eGMJhDVJHEfnx142GIM7Ql6JElGO+qL/Q5UogKkjjcBw1Rg4K8VIGDQ2Z/7Hcoxvt/8PEDenv4FQkI0WQQHK1zrmm6QySl7T633WDruB4yH4Pmw+ZRjMd89MMhQ7H+GWwxGo2m7+Hjy4SmMZPzbDf+YQTYkueI+bgfruqTNB3G6ACDO/uHLLEvjqbZRt7g09Ei+qoL0TPl6chnQ3PEdDA2oBjHbzwMEhcXI8Wm9xCiZzcyjGWVI503yrVUX3TBcsj02sVUh5HX2Fl8QOMfzXgfrLJdVakXYYgoxvjH/UO2hXlxBBYATeHjIocvykSooqlxQFUgrIIfx/9gFi9djX40hlatLu7bxkd9zpS2y4JusMlXR+kAMGoNHiv4G24HqYpWX5hqLYoloeiNWKnJg4x8coah7uXgd5b810gS4/eejDKHPyQYqJdkkjiTsmnnoNCE9QZVBwoKB+WLTUwumKro4J2D0rX1rGYURS7mdJDSF9YUvpnPlnsswERJrPWp6baR3ig6mRZryBS8eWQURlLXViSxyAgXcSVEBUmcLkgkcSUkhT4V6Q2ZEcvmoJI4oshrny6Jv3zy9qU4qEcSS74wF8fHx1+/ZiFeSWKX+Sb0cUlsTh4uLy8f9hgjcEEWokJ0vrzd3d29vUaDXBLDI4QyQ/BGocmZk9Nnz56d7smMkBAVc9qYl7vb29u71wZL4m5dRZIYhHmJwbZpGrKyZxhi0DctCVExUzOMQtP70WIxhRrZZNWDvEmrlh88uYwwtD0QWRKjCC8wWNgjRnLXpmvwDKNmJM5QSWKu1wCG2G6Vx1PafcTBAkPcOShdm1K1AAYrIvgtiVZGgZ8VlRAVGDGOdm3SnQAM5k8ATfZnldUMYFQ5kroi3LWJ/kQhKjOSfNHzwLkpCavtEuMtOHGOAoMvcYUR9iBDWM1IiDJGmN4QV7MCgy/WhRH93R4rhaiAwrwb/7uznQPNn6V8sbjAL1cnWvQ+tcCQI6htouRrVFZxiIq7JYBCWpUTTRAbVvJFkphaXIQL4hCVcsQJvqgVH4SohGKA4iMhykRcCRZrsCQWFF8mBTK1d2u7Xu4LDJ2R8iADqlaqq2DBG5d7bFS6IFdKyRApxAojgiR25tOPxO6eebujgz/2MXL/L2LTbW8jOnivvlWT0d2dXhILMOjQ5WkfI9u7xAIKNrb7zTCVW3F6Fy/ca5dGfnc4MLI9wL6ZcskkRF1rcMwNg6HniPk2EAZihEjimCN3D6fYEilk7PTBqCgas/tPYpEVNvgNGMmS2FJg5mSP2CeP4/ITHdzTUXSLCLX7kClf2ShBgSWx8LJyQFWWNmK04+JBj0xO2Kq8yFULEgckMaqdJEfm98fH9y8Nq509kpgtLqRrU/tULIlxrsMMYW/tvRHmiEtwgcHWEbxPSCRxpWmZ3pDWkQ6G317UfFFW2L69dOhUREaY3mCMRLwAQ1syFEnMFbTkTUkSa88EEgw9cbgk5jkiPEKo+tQiibXVLMGQfOG4JJbigvlCYCSEaM4UiZG2xIYUF1wSq4zAixMiI5Uklu4Dhagg4rAkVhmhXZsoaCA2ZBQlRPmd5EaHSWJhjtIvKYyYUjdkRrrTIUQFRqwsiRWlpG+Xsa4Ny9nsfBSiYp+KQlRmBFCojEhdG1pHgs0zKSa7FvtC7toqFDlE1b/T4pI4obhfgIXnAOXjnKKoJLFUXkASO1MzEs4rmYJnMAvlucR0NKdJCTB0RooMVEW/Ofnz4eHhzz1+HwvtKU0Hg/apP/91e3v71zVnVUPBRUcMRPslyJwvfIbFVHlmNcU7jX7ieZA5c6cyQlFoOwc58OgM74+z3XscC/h4vHa0oKbf72fE4q5N71Or+yiZccEypaCo9IWKwsV6rjDS06eW+gYwZBE3qMtMtFSMDJ8BYPAWmvepui+y6tH/0kuvOHDBBENcPjesI5okfsrOQYLBGBl8J1QSD/pDTXH/ooRoHyMqijZLYreBEY1Tq0vi4TlC/gL0yYwgvVHtKA1mRHi3R+2KlBmoJH5SjgiS+FE5okjixzLSi2IQI0ES/z6dHh2XveqnMELf7Xk8I53N/asg10ZixA70hfAgY9h9iIsfZWRQpjJJzE4Oc0sny33qk6tWWdu9if9NiTRoN5w5ZA71P0UJ65u14F1bBg390bLTpcMjTkc//g2hlFXrDIooKwAAAABJRU5ErkJggg==;" parent="tzZtZtUzTntlYtjN_Du5-2" vertex="1">
          <mxGeometry x="28.180000000000064" width="22" height="22" as="geometry" />
        </mxCell>
        <mxCell id="dhRZBU3aFt9_n93tNdM4-17" value="20" style="ellipse;whiteSpace=wrap;html=1;aspect=fixed;strokeWidth=2;fontFamily=Tahoma;spacingBottom=4;spacingRight=2;strokeColor=#d3d3d3;" parent="1" vertex="1">
          <mxGeometry x="890" y="430.17" width="20" height="20" as="geometry" />
        </mxCell>
        <mxCell id="dhRZBU3aFt9_n93tNdM4-23" value="" style="shape=mxgraph.mockup.containers.marginRect;rectMarginTop=10;strokeColor=#666666;strokeWidth=1;dashed=0;rounded=1;arcSize=5;recursiveResize=0;" parent="1" vertex="1">
          <mxGeometry x="900" y="-70" width="260" height="320" as="geometry" />
        </mxCell>
        <mxCell id="dhRZBU3aFt9_n93tNdM4-24" value="Content and Processes" style="shape=rect;strokeColor=none;fillColor=#008cff;strokeWidth=1;dashed=0;rounded=1;arcSize=20;fontColor=#ffffff;fontSize=17;spacing=2;spacingTop=-2;align=left;autosize=1;spacingLeft=4;resizeWidth=0;resizeHeight=0;perimeter=none;" parent="dhRZBU3aFt9_n93tNdM4-23" vertex="1">
          <mxGeometry x="5" width="200" height="30" as="geometry" />
        </mxCell>
        <mxCell id="QY_VV6FcXAard618ne-8-1" value="Know-it" style="shape=image;imageAspect=0;aspect=fixed;verticalLabelPosition=bottom;verticalAlign=top;image=data:image/png,iVBORw0KGgoAAAANSUhEUgAAAGAAAABZCAYAAADB7SFdAAALvklEQVR4Xu1dT1AUVxr/RmHAZGZUQBMZdgViliFVkRwUt8rsQcAqNxcgqcRDBLKH3YNRr6vmrJIzqJdslQFzWLZqgRyym1r+bNXGg5CkSrZKwGwAIwzrZkYTBgh/NpD6vZ6e6e7pv9OvZ4bQr2pqLOnpfu977/v/+772HOq8v7m5SeTxEInftElEHiLNb0oOvcuUt2G/SvxA8kDlBDY3yePxECYm+6ZN8pCHNhXf2hOVzIAtUL5Olceq00GyXqN/ptBDbR3xdYHgnkMd97Gq1DWoPEmb2AqiSHfTaJUmiSwSXZcAiglamYY+YeU3TjkEBkSW7aqCHh6XA5KcrykJjI69nkRwOcCc2HE5QCEvlDpgd2Ee1VX46GSFj/zenXQs+Ayj2VxsneYW1ulueJkGp2M0HllVV16uDtDWgHqK1l+wg9oOF1Hb4b0UKNhpKAxG5pap84sI3Z1d1hO9CYMjYXhYUC7bRgeEir3U3VROgYIdhoRXXnDr3hO6dudx0uxyOcAaBzSHAnT5+PNpEV/cjIHpRbo4GKbF9Y2UE5+icF0OSPoF1cVe6j9dafnUq/3grxPf06WhcFwTm1PIKf6QhZlseT/A5/XQcMuLtk6+kl5X7zymD+891dUJrhUUt4LO1+6j80dLLJw540sXVjeo7vZ/KLa6YU0xi4608SMSV2xpDigLeGmo5QULyzV/aedohDo/j2jqApcDPB5mar736nPmqWrhytnYOtV3f+1ygNoRFP2AG6/9ghoqfBbIau3Spp5p5qipxYhcDvB46MHZkDWKWrz66mePqevfTw1N0m1rBT14t9oiSa1dDh3QMRJxOUDIM8jzAcGAl4YdUsDiNhkp4m0fDXU5IB4tyFZGzNUBUi9CRbw6nRH7+HQlhUoKrAl2C1e7VhCIpZMTdtIPiK1t0JEPHrh+gJ4f4KQn3Iug3PC86wkboSLa60vp9dBuC4LF+FKc/saeaZY5s5So326xIHjEpf48gi7we60nYbS2Qs/+dzNiKkeyodxHN14rMz7aJq4YCS9TS99DNx+g5/+r5YSREWuvKzVBYu1LJqKrdKb3oZsRk4lSC8i45qoAvfeb59MSR1C6Vz77L8XW8HQxHepmxFRRUHqoCOiEC0f3UbNJxQyYSsdohLABlhSuLq+5yDiq3ldItaXP0BuhPSnOGqycgakYDUzjs+jignCiTcd8bWBDYSmB+Fr5QCvTcPMBBsg4JqZcdLQWENxFR6dA6SUQdK7o6GAgnxoq/Ewml/nzE5wrYjXHIysEFII4oBRnF9bY/+Fvo/PL8V3MrfqAskA+VRUXUHVJIZt60J/PPsxzVxnwqrG2rrEnMjHoKCoi4N1Bw632MTtIkI9/u0Lj0VUanFqgiehashhDQ8zwrA8A1LGu3M8AviCyeHjScTouDc1T34OF1GISJzjglf276C9vlqczT93fYENgxfROfEfj0TWmwHlXyCDjVl/uo9dDe6iaQ8gbpx/EB1dfOv4cvbSvkBDudpQDcFJuNx3kvgHSG2IzYMPfuhelxTWce3lZkgVznYnexl/tpndqirgQXXz29c+jbH67C/Ko41SQ3Rshj7aPH6VwgpE1aKlCpnKPlz592xnglBphgetEHhc6xIoV5Pd6qK2mmMHa00FWa20yiAxkBUIc8Ek6T5Ul7o+AH+bqKAdAB3zx+ypHOUBrIzpGv6Vw7P+6z07WEvAlPHwNPL9r7Dvm5LW+XESXX90vm8u7f5+loZklZzkAIZUv/1CVVmyGx67dnVumD8eeMI9XWiQRKvFS2+Fi7nkEzHkQEPehcMLSuXrigOpz6m9/zawiRzkAN0eYGGZotgfM2oW1H2WmMM85JU/9U5ZHhVjr/G0ZHSsVSqOkA9ce/RPSnamltVx1ADjgnVeKHMNv8iSgnXtNRFYJIgW2Po40Qh5djQc1FTl0Q2v/N+yRjnNAbQYsITvEs/vb3kkUdMwnbmNEfFwIqwg6IiMcgC3+ymEIoV0ipvv7i3CqJr9PSI1QcQFdqys1NGHBLdAVGeEApDc+aj7IzLCfy4AMR9oS5qU4QHyIHTNmbMNHU0lTWeFEctcB4IALDlSxZGszQfSzn8xSeHE9QStf/g7qbtKW+dK5wvKBBSQOx3UAOOBkhZ9b0jxbhMdzpTljcR5mZL50zhA95z6dy0wsSMSMYpJfZsEh47lZULZX/vVYlrC3cvLFuaAAsGsMpqowMsIBeMhw6yEhXLsFB4h/cXBe3pqGiHrfrDBUuMrlIgA3+UQSzc2EDsAk3ncAwZaJvVQjPsBZ1+rUPVyjOYVuTsguyRgHAKWATdhKQ4v4bTV76fJx68WBo+EfqKX/oXro3Il8QKJugIixKiCEW2VoEb+h0kfXT6WHwhMjoFIaZIwDYA1BEfPEcDq1mVrExyEya+urza2t/xHdDS9lhwMwoZs5EpjT2zgkdxDNFDRuEhkHB0svvmPmMCAAJ4PFZNIKAgfkukOmdfKxF0im2KlJhg/R3DMjZOyy1TOOR4oSMEKYs7xrAhInX7TMJRzQ+vJeumyzIh+2P3wA5cioDsDD7FY2Iq4PWxq4mjeq91BbTZFtvSJA0r9RheOU+vKp760KUzEePTHEMmDTS9nlAEwQlpBdlAGQBY09MwwN4S/YyZLo+KSj4BHLP9M3k0RFKzgAxLc7X6xbzIBlnQPAyiCW3QFRhKS2iIJA36ALtftZAw+zQ4ztxNY3VJu0nq8toXNH7LfCQW4a7W8SadFs6QAQhmdg7kzfQxoJ/yDDBaFwDwlwozQoqwP78xTNscR9auvfUEkh9b9VYXYvda9DAA4iSG1kXAeU+vPpn62HuCwM+uBE91eqeKCjpbuY560WfwLxsXksnq/sVhw3PQfOvMAtf3ztzv8YOCAnOIB3YO4fOF2fPFI17SCWfldTTOckHbUE4s/QRGRNs9k1OnBJf2P3tMBokCZvsuYJi+zGOzAH8NMt6QmTNOzGYsEFsJbwjVwsFC8bKr2jeVk9UiJX35yUI/ayqQOwZhCDZ6cr0TRNIOLEEG8a9QHwdu2Ab5XcIkVA5IQOgMh9CQruNB8FJy4KICxAPexgQ+0E2rTEFAJw10ejucUB2AQnkBJX0OFqDB2u4u6+BQ5Af+m+0xXcFK+4IVIERM5wAKyB282/5I6UgChq7JlimFCr9QHnj/BVvCKxEYBLQW1nWwc4GZhD1eNZ0SoyyQGAEQ5xbv6KDVAiIHKKA2qDuxyrHUBch8XdteqFRErErSBeHq+SwL2TC6wNck52T3cSui72/DRTJRn0e7kE29RONyCLCHHrjYx7woLjKVRJ8gjMaS0OSZXeiQV9H8pD1H7igOmqeqsOWVPPDE1EV3KTA7DzvAJzaoQBF9R1SwJgMudMOAZBfx4NtfAJiyjnYEb+q/iChskarm9RcsIfkBIC4FkkWrRGe/0Baq7i2+xJfJYgfsCBKq/SygUrSJR9TqYpkTeAGFB7jxhkv1ONv7WyXzllBUmJghAy8q0oehY+/DohwiJCOEA5eAbcEGgTXgy0xGDnyhB3TlpB2i0thQgx4jHJDUl/UyCC/qgwBe3Y/dhMvPhnPLpCswvrNBldTX2joAVtnVUrSBofN8LF4++1wWcZdxyLf5vFmlbdkMMBgdJrrztgSCYoUhAbRL8fWZET24JxuSU5INFyQadjVtCXx3pQoBBO7A+kRpezfxMqUkSxN9iinmxBmBrvFxuZW2JtEdyuiRoNfPQ6ZiET9uvgs6xJk5iWFCAnQh2X9PSLJ3xgJsbeI2bm7Ulu10QzmxKPhiIjdrIywIJ+MAvBAQHvTpaLELplxbRfA+u+R8zae8S0ww46wlolI2biZa4MP2ToYkuSzT9bHSBV3Ly7pSixoWbamUnR4EZbpIgHShoEq7wX2X2fcGpLO5cD3J5xCv2lciS0nS23Z1zGesYpcyJGHrD072xPdfwAVwekUEvOBi4HCBRwraCUNmapWFBVlJa2Jaz+aqvt+P4ALfvfKipCWo5kyuR0Y0HyPqLbxQ/4CY4gUEOtar0/AAAAAElFTkSuQmCC;" parent="dhRZBU3aFt9_n93tNdM4-23" vertex="1">
          <mxGeometry x="50" y="40.52000000000001" width="53.86" height="50" as="geometry" />
        </mxCell>
        <mxCell id="dhRZBU3aFt9_n93tNdM4-5" value="12" style="ellipse;whiteSpace=wrap;html=1;aspect=fixed;strokeWidth=2;fontFamily=Tahoma;spacingBottom=4;spacingRight=2;strokeColor=#d3d3d3;" parent="dhRZBU3aFt9_n93tNdM4-23" vertex="1">
          <mxGeometry x="20" y="55.52000000000001" width="20" height="20" as="geometry" />
        </mxCell>
        <mxCell id="dhRZBU3aFt9_n93tNdM4-25" value="Network &lt;br&gt;file stores" style="shape=image;html=1;verticalAlign=top;verticalLabelPosition=bottom;labelBackgroundColor=#ffffff;imageAspect=0;aspect=fixed;image=https://cdn0.iconfinder.com/data/icons/business-collection-2027/59/record-128.png" parent="dhRZBU3aFt9_n93tNdM4-23" vertex="1">
          <mxGeometry x="50" y="120" width="55" height="55" as="geometry" />
        </mxCell>
        <mxCell id="dhRZBU3aFt9_n93tNdM4-26" value="bupa.com.au website" style="shape=image;imageAspect=0;aspect=fixed;verticalLabelPosition=bottom;verticalAlign=top;image=https://image.flaticon.com/icons/svg/811/811768.svg;" parent="dhRZBU3aFt9_n93tNdM4-23" vertex="1">
          <mxGeometry x="155" y="40.519999999999996" width="50" height="50" as="geometry" />
        </mxCell>
        <mxCell id="dhRZBU3aFt9_n93tNdM4-27" value="myBupa website" style="shape=image;imageAspect=0;aspect=fixed;verticalLabelPosition=bottom;verticalAlign=top;image=https://image.flaticon.com/icons/svg/811/811768.svg;" parent="dhRZBU3aFt9_n93tNdM4-23" vertex="1">
          <mxGeometry x="155" y="122.5" width="50" height="50" as="geometry" />
        </mxCell>
        <mxCell id="dhRZBU3aFt9_n93tNdM4-28" value="MEGA" style="shape=image;verticalLabelPosition=bottom;labelBackgroundColor=#ffffff;verticalAlign=top;aspect=fixed;imageAspect=0;image=data:image/png,iVBORw0KGgoAAAANSUhEUgAAAHIAAABsCAYAAAC2AeaWAAAL4ElEQVR4Ae2d+XMUxxXH/bekUpX8lKr8AI6JU44Tlykb7ECcxBEOBidlSGww5jK3OQSIGAMCAy7bCBxzB8vGRhyWBBKSkAQSAiSBBEIIhLhBQgKBDuSX+i55Q++oe3fnVM/uvKpVz/R0v/f6fbpnZ3tmWk9RKEkRgaeSohVhIygEmSSdIAQZgkySCCRJM8IRGYJMkggkSTO0HZEdPQ9o35XjtKpuD82v3kGTKrPozdLV9OrhpfSb3Nk0aP90evHQQvpL8XIad3Q9zTjxFWWczqZPzx2gcx1XkwRP4s3QCmR9ewttbDwYAfPLfVPIyeeVwiW0qu57Kr55hrr6ehKPSEBLagFy75VKGl2a6QhcLOgv5M+njNqv6XLn7YBiiu/2gIKsuN1A71dmeQbQDPd3+fMiI767rzd+ZAJWYkBAYmRghJgD7dd+2pGVhLNAMonvIHNaKgkjwy9osexMOb6JWjrvJAVPX0FuuVBoGeCvc2fRO8c+o/nV2+mTs3tpx8Viyr92ikpv1dN3l49R1vl8Wnb6G5pW9SW9XvyxZf3DChZT0c3TgYfpG8iPz+xOOMhvla2h1fU5dPT2OcsBvtnVTntbKmlB9Q4aXrg4YZu4Wg6y+ALyryUrEgooTnUnW5tcjed/LhQQrlpjnWL52OyTW1y17acyz0E+88OMuEHEj/qclgrP2o2LqyW1u+L6AaAzT2z2zA8vFXsKctSRlXGDh5mYzt4uL9to6Mb3aloCZ4ddl44YdYKy4RnIOSe3xoV44GqV73G61/OQJlZ8Ede3whu1vvvmxKAnIHElyd87qrSuvcWJ347rLq6Jf6o90XrBsR2/FLgOEj1ZBY/zHz7q9qt9Me0U3zgT09cRhzMIV8FBENdBvl2+LmZwdLszceh6TUx/157dFwSO7j6zs/NSScyg7LxYomVQNjepJyqey5tDzZ23tPRbdMq1EdnafY9w64hPn+Y0qzFftKvddnrNf5W+YzJDd3EN5Jr6HGUgphzfqHsc6HZXB71UkC5tw9MHPqBzHVe0boMrIOvuXiY01jwKeb/89lmtg8DObWo8qGwDrnJ1FldAxvq5gd+TQRFMTLxW9G8pzOfz59EDTa62ZfF0BSTuTvDoM6fVbRdldrXNwwWZuQ28n3vtpLZ+OwZ5/WGbsuFBGo0iIdVF26KanWIxrbYdg8RkN/dYc5p79YRWjU3UGdUEOy6GdBXHIHHryQwQ+7jrocsMjtXgF91Uz/jU3m22qs6X8o5ByiAib06A7+0h8qp7mLhbo6M4AtnWc186GgEyT+MLg0RALFU8HIaHpXUURyAv3LuuBNkQ8Ke98WyQ7GyDp9p1FEcgq1obpY1FAO72dOrY3oR9wgNeMpB4ZUFHcQTyoKKxg/dP17Gtlnw61XZRChLvnOgojkBmN5dJG4tHDIMuVx7ckbYNo/SWhvcoHYFUTc2NKV0ddI7U8+MjJUgdZ6scgcSluOx7BDeXgy74jpe1DXm4yNNNQpAKIrjqVoF8+Ei/1/RCkAqQeHRSBvL5vHmKGgObHYJUxB/vlchA4lldHSUEqaCiupCbWvWlosbAZocgFfF/q+wT6YhcrunzOyFICchrD1qlEHGqxQIVOkoIUkIFb3DJvh+Rh9VGdJQQpISK6tEVXSfM0YQQpAkkbhyrRqPOL8OGIE0gPzy1XQkS6wDpKiFIgUzFnQYlRKwDpLOEIAU6WFBCdVr9trlcKKnfZgjy/0wOXqtWQsRvSt0lBElEjfeu07O5s5Ug9w/Am9VWO07Kg+z7sY+GF6iXccFPkSBIyoN848gq5UjE92XBjZogcEzd35G9fY9oeIH6fU5AzKzfEwiIcDIlRySekPtVnPV/sHJWkCTlQMaaR+WfHiOLlgWJYcTXlAF5+m5zZLlshhUrbeu+H4JEgHR6+Kq95wFhZY7BB6bHvKhhsDo+IZdIr0raEYl3/rc2FdEfFW8gMzhOhx5aqOXzqolARJmkAIlHF/HUG2ZnMmqzaeThZQmNPob4XuWGROOlbTnPQOL06uUHD0HjiXa8nsBA7KTrz+3XFo4VxzwBaSegftdBJwvawoGxwKYcSKwPgBW6kk1SBiTWAcKiTlihKxkl6UFi0hvPqGJRp2SWpASJBSqw2giWjkkVcQwSb2QNxAejDO9n4mVbvDmNN6SwpkGqiiOQqRo0HdsdgtSRig2fQpA2gqZjlRCkjlRs+BSCtBE0HauEIHWkYsOnEKSNoOlYJQSpIxUbPoUgbQRNxyohSB2p2PDJEcjMz7YQf5qaY/87hdzCMqMs6lgVtpNIalW3uXxuYSmt27iTps5fQeOmLopsI6+3151/si1rg9kHq/uOQP5k0DDiz8ixk+luh/wWUW3defrFb/9slE3750yrfhLqsK1YqZ1OIjqzeNUXSju/f20crc3aQTdu2f+/zEXlVf30PzfiH6ILtrZdA4ngjpnYfzGh1rZ2Gvr6v6Kc1xXkMy+PjvJT1mE+WLTKVqC50sRZy6Q2HnY5+8dvroJEwyfN/Yh9jqRjJ87r57hTkKiv+tgdkX97Z3Y/P9+espCWZm6guRnr6M0JcyPHyyqro9pndednQ/5g2GGdiNu+fGdPLbgOEk4tWP5ppH0z01cbTiPw3MOdgrQLSxX0HbsPGL6xjzV1Df2K7/o+r1+elYwTNfWGnUEvjqKsbd8a+/gudiKugVz9+VbDKQQDweagDB76RtR3nG4gZ6RnGr7CZ6ejTgVk1pI1hh2cuc43XTb2YdeJuAYS4DZu2x3lGIPEFaubI5L1mlO7gXh19CTD78nzlttVE7ceLmrYZ5wFICPGTDbySitOxdWhKuAqSBhJX/m54Ric3rD1m4htnUFycJHKTtsYofCfP6pgxspvvPhk9P18yAhqvvJ4zdcV678y4vXRWvvr3LkGEqdWlnHT0iPO4XcYi5sgOaDmlG1ZTV9Oe9cI5vSF/a9KAVKEbVU/yovA/v7+/Kjf1Kx7yLAxdlRH6ngCsqenN/KT41Ffn+GYmyBlo8YwZGMDp1MO5ktp7/bT4AbItPFPLvbYliytqqnrZz+RDNdAmoPbcOFSlH2dQcJ3MagTZmZE+e4U5K07bfTTp4dH2RDtidtrs7ZH2U50xzOQZgfcBongqz5m24nsv/Cn8VGBBkxcvBWUVNDmXTlRxxLRJ5bZlr0vqr7Mb4aJkWtHAgmSGy1LESQ7Yv4pINPNeVb1i6duTDKYBVN+rBtpfUOTuUjc/RCkEKKOe/cJU3BiUM3b5tOuUF262dXdTc++MtbQebD4qLScOD2IiQKr4gik+RQRy7iVsjI95vqx9mX1reSJdz/GvvdhZIpua/ZeunbD+r+xP1RyLOorQOUHtwdX/9i2Ko5AWjUWlvcuAiFI72Lrq+YQpK/h9s5YCNK72Pqq2RFITIZv2v4dtXc8fgvq6z15hC9rnq4rr6w29i9fffL/pMR81IEgj4W3zfr4OHTBRnZOfpRtPs762S/kI0/0lctAD/TJdJr15RWWcRax38jANnRDWI85DlxRbBvqnD7b2K8el+E6iaS2QcIB/GBGsJBCMoX5Vtm+6BCcFcvLtsU8c13UR9C4TNr4GZEiMr8QaHQ6sTzXY73QxzoXrYheEZLLsm7UYXtoO/LFY+JxbHN9cZvzMC8NYfuRHRt/bIMEwGkLVkb1cuyjJ3JvhbNizxT9g+PcGORzXZTnfM5jfVwfdTG5jQ+2IRxY1IVvCGz58ccrO7I+DjjKI0/0DXowQjDKuWOyPZSFLvEY2+OUy3Iq5rN9tosUnQU6RZBoD3xCh7MqjkAiYDDKPVh0WHRa5pQZpFiXtzk110ddBsiB4MABAo4B2rBREyJVoYfhqnxFHdRFWXMgkcc62Re2h87GglHPwsexL7aDt+EHynOngX587IptkGisecTwPnoVN4B7vTk4cJobxWW5EZxv1sfHURe9F+U4eBw4AEOQYJchi3kcONQVfeNAclm2ZfaN89keOgzswVcRBB9HeeSjDD4oL+qEH4gNtwk+iXrYXrzUNsh4isPj/kYgBOlvvD2zFoL0LLT+Kg5B+htvz6yFID0Lrb+K/welUUcqfj57xwAAAABJRU5ErkJggg==;" parent="dhRZBU3aFt9_n93tNdM4-23" vertex="1">
          <mxGeometry x="45.25999999999999" y="230" width="63.33" height="60" as="geometry" />
        </mxCell>
      </root>
    </mxGraphModel>
  </diagram>
</mxfile>
